<?xml version="1.0" encoding="UTF-8" standalone="no"?>
<svg
   version="1.0"
   width="1000"
   height="1000"
   viewBox="0 0 1000 1000"
   preserveAspectRatio="xMidYMid"
   id="svg40"
   sodipodi:docname="Logo.svg"
   inkscape:version="1.4.2 (ebf0e94, 2025-05-08)"
   inkscape:export-filename="Logo.pdf"
   inkscape:export-xdpi="96"
   inkscape:export-ydpi="96"
   xmlns:inkscape="http://www.inkscape.org/namespaces/inkscape"
   xmlns:sodipodi="http://sodipodi.sourceforge.net/DTD/sodipodi-0.dtd"
   xmlns:xlink="http://www.w3.org/1999/xlink"
   xmlns="http://www.w3.org/2000/svg"
   xmlns:svg="http://www.w3.org/2000/svg">
  <defs
     id="defs40">
    <rect
       x="230.19044"
       y="384.23096"
       width="164.48392"
       height="75.714821"
       id="rect69" />
    <linearGradient
       id="linearGradient50"
       inkscape:collect="always">
      <stop
         style="stop-color:#0008ff;stop-opacity:0.85000002;"
         offset="0"
         id="stop50" />
      <stop
         style="stop-color:#00ffb2;stop-opacity:0.55000001;"
         offset="1"
         id="stop51" />
    </linearGradient>
    <linearGradient
       inkscape:collect="always"
       xlink:href="#linearGradient50"
       id="linearGradient51"
       x1="131.07692"
       y1="433.84616"
       x2="260.92307"
       y2="172.92308"
       gradientUnits="userSpaceOnUse" />
    <linearGradient
       inkscape:collect="always"
       xlink:href="#linearGradient50"
       id="linearGradient1"
       gradientUnits="userSpaceOnUse"
       x1="131.07692"
       y1="433.84616"
       x2="260.92307"
       y2="172.92308" />
    <linearGradient
       inkscape:collect="always"
       xlink:href="#linearGradient50"
       id="linearGradient2"
       gradientUnits="userSpaceOnUse"
       x1="131.07692"
       y1="433.84616"
       x2="260.92307"
       y2="172.92308" />
    <linearGradient
       inkscape:collect="always"
       xlink:href="#linearGradient50"
       id="linearGradient3"
       gradientUnits="userSpaceOnUse"
       x1="131.07692"
       y1="433.84616"
       x2="260.92307"
       y2="172.92308" />
    <linearGradient
       inkscape:collect="always"
       xlink:href="#linearGradient50"
       id="linearGradient4"
       gradientUnits="userSpaceOnUse"
       x1="131.07692"
       y1="433.84616"
       x2="260.92307"
       y2="172.92308" />
    <linearGradient
       inkscape:collect="always"
       xlink:href="#linearGradient50"
       id="linearGradient5"
       gradientUnits="userSpaceOnUse"
       x1="131.07692"
       y1="433.84616"
       x2="260.92307"
       y2="172.92308" />
    <linearGradient
       inkscape:collect="always"
       xlink:href="#linearGradient50"
       id="linearGradient6"
       gradientUnits="userSpaceOnUse"
       x1="131.07692"
       y1="433.84616"
       x2="260.92307"
       y2="172.92308" />
    <linearGradient
       inkscape:collect="always"
       xlink:href="#linearGradient50"
       id="linearGradient7"
       gradientUnits="userSpaceOnUse"
       x1="131.07692"
       y1="433.84616"
       x2="260.92307"
       y2="172.92308" />
    <linearGradient
       inkscape:collect="always"
       xlink:href="#linearGradient50"
       id="linearGradient8"
       gradientUnits="userSpaceOnUse"
       x1="131.07692"
       y1="433.84616"
       x2="260.92307"
       y2="172.92308" />
    <linearGradient
       inkscape:collect="always"
       xlink:href="#linearGradient50"
       id="linearGradient9"
       gradientUnits="userSpaceOnUse"
       x1="131.07692"
       y1="433.84616"
       x2="260.92307"
       y2="172.92308" />
    <linearGradient
       inkscape:collect="always"
       xlink:href="#linearGradient50"
       id="linearGradient10"
       gradientUnits="userSpaceOnUse"
       x1="131.07692"
       y1="433.84616"
       x2="260.92307"
       y2="172.92308" />
    <linearGradient
       inkscape:collect="always"
       xlink:href="#linearGradient50"
       id="linearGradient11"
       gradientUnits="userSpaceOnUse"
       x1="131.07692"
       y1="433.84616"
       x2="260.92307"
       y2="172.92308" />
    <linearGradient
       inkscape:collect="always"
       xlink:href="#linearGradient50"
       id="linearGradient12"
       gradientUnits="userSpaceOnUse"
       x1="131.07692"
       y1="433.84616"
       x2="260.92307"
       y2="172.92308" />
    <linearGradient
       inkscape:collect="always"
       xlink:href="#linearGradient50"
       id="linearGradient13"
       gradientUnits="userSpaceOnUse"
       x1="131.07692"
       y1="433.84616"
       x2="260.92307"
       y2="172.92308" />
    <linearGradient
       inkscape:collect="always"
       xlink:href="#linearGradient50"
       id="linearGradient14"
       gradientUnits="userSpaceOnUse"
       x1="131.07692"
       y1="433.84616"
       x2="260.92307"
       y2="172.92308" />
    <linearGradient
       inkscape:collect="always"
       xlink:href="#linearGradient50"
       id="linearGradient15"
       gradientUnits="userSpaceOnUse"
       x1="131.07692"
       y1="433.84616"
       x2="260.92307"
       y2="172.92308" />
    <linearGradient
       inkscape:collect="always"
       xlink:href="#linearGradient50"
       id="linearGradient16"
       gradientUnits="userSpaceOnUse"
       x1="131.07692"
       y1="433.84616"
       x2="260.92307"
       y2="172.92308" />
    <linearGradient
       inkscape:collect="always"
       xlink:href="#linearGradient50"
       id="linearGradient17"
       gradientUnits="userSpaceOnUse"
       x1="131.07692"
       y1="433.84616"
       x2="260.92307"
       y2="172.92308" />
    <linearGradient
       inkscape:collect="always"
       xlink:href="#linearGradient50"
       id="linearGradient18"
       gradientUnits="userSpaceOnUse"
       x1="131.07692"
       y1="433.84616"
       x2="260.92307"
       y2="172.92308" />
    <linearGradient
       inkscape:collect="always"
       xlink:href="#linearGradient50"
       id="linearGradient19"
       gradientUnits="userSpaceOnUse"
       x1="131.07692"
       y1="433.84616"
       x2="260.92307"
       y2="172.92308" />
    <linearGradient
       inkscape:collect="always"
       xlink:href="#linearGradient50"
       id="linearGradient20"
       gradientUnits="userSpaceOnUse"
       x1="131.07692"
       y1="433.84616"
       x2="260.92307"
       y2="172.92308" />
    <linearGradient
       inkscape:collect="always"
       xlink:href="#linearGradient50"
       id="linearGradient21"
       gradientUnits="userSpaceOnUse"
       x1="131.07692"
       y1="433.84616"
       x2="260.92307"
       y2="172.92308" />
    <linearGradient
       inkscape:collect="always"
       xlink:href="#linearGradient50"
       id="linearGradient22"
       gradientUnits="userSpaceOnUse"
       x1="131.07692"
       y1="433.84616"
       x2="260.92307"
       y2="172.92308" />
    <linearGradient
       inkscape:collect="always"
       xlink:href="#linearGradient50"
       id="linearGradient23"
       gradientUnits="userSpaceOnUse"
       x1="131.07692"
       y1="433.84616"
       x2="260.92307"
       y2="172.92308" />
    <linearGradient
       inkscape:collect="always"
       xlink:href="#linearGradient50"
       id="linearGradient24"
       gradientUnits="userSpaceOnUse"
       x1="131.07692"
       y1="433.84616"
       x2="260.92307"
       y2="172.92308" />
    <linearGradient
       inkscape:collect="always"
       xlink:href="#linearGradient50"
       id="linearGradient25"
       gradientUnits="userSpaceOnUse"
       x1="131.07692"
       y1="433.84616"
       x2="260.92307"
       y2="172.92308" />
    <linearGradient
       inkscape:collect="always"
       xlink:href="#linearGradient50"
       id="linearGradient26"
       gradientUnits="userSpaceOnUse"
       x1="131.07692"
       y1="433.84616"
       x2="260.92307"
       y2="172.92308" />
    <linearGradient
       inkscape:collect="always"
       xlink:href="#linearGradient50"
       id="linearGradient27"
       gradientUnits="userSpaceOnUse"
       x1="131.07692"
       y1="433.84616"
       x2="260.92307"
       y2="172.92308" />
    <linearGradient
       inkscape:collect="always"
       xlink:href="#linearGradient50"
       id="linearGradient28"
       gradientUnits="userSpaceOnUse"
       x1="131.07692"
       y1="433.84616"
       x2="260.92307"
       y2="172.92308" />
    <linearGradient
       inkscape:collect="always"
       xlink:href="#linearGradient50"
       id="linearGradient29"
       gradientUnits="userSpaceOnUse"
       x1="131.07692"
       y1="433.84616"
       x2="260.92307"
       y2="172.92308" />
    <linearGradient
       inkscape:collect="always"
       xlink:href="#linearGradient50"
       id="linearGradient30"
       gradientUnits="userSpaceOnUse"
       x1="131.07692"
       y1="433.84616"
       x2="260.92307"
       y2="172.92308" />
    <linearGradient
       inkscape:collect="always"
       xlink:href="#linearGradient50"
       id="linearGradient31"
       gradientUnits="userSpaceOnUse"
       x1="131.07692"
       y1="433.84616"
       x2="260.92307"
       y2="172.92308" />
    <linearGradient
       inkscape:collect="always"
       xlink:href="#linearGradient50"
       id="linearGradient32"
       gradientUnits="userSpaceOnUse"
       x1="131.07692"
       y1="433.84616"
       x2="260.92307"
       y2="172.92308" />
    <linearGradient
       inkscape:collect="always"
       xlink:href="#linearGradient50"
       id="linearGradient33"
       gradientUnits="userSpaceOnUse"
       x1="131.07692"
       y1="433.84616"
       x2="260.92307"
       y2="172.92308" />
    <linearGradient
       inkscape:collect="always"
       xlink:href="#linearGradient50"
       id="linearGradient34"
       gradientUnits="userSpaceOnUse"
       x1="131.07692"
       y1="433.84616"
       x2="260.92307"
       y2="172.92308" />
    <linearGradient
       inkscape:collect="always"
       xlink:href="#linearGradient50"
       id="linearGradient35"
       gradientUnits="userSpaceOnUse"
       x1="131.07692"
       y1="433.84616"
       x2="260.92307"
       y2="172.92308" />
    <linearGradient
       inkscape:collect="always"
       xlink:href="#linearGradient50"
       id="linearGradient36"
       gradientUnits="userSpaceOnUse"
       x1="131.07692"
       y1="433.84616"
       x2="260.92307"
       y2="172.92308" />
    <linearGradient
       inkscape:collect="always"
       xlink:href="#linearGradient50"
       id="linearGradient37"
       gradientUnits="userSpaceOnUse"
       x1="131.07692"
       y1="433.84616"
       x2="260.92307"
       y2="172.92308" />
    <linearGradient
       inkscape:collect="always"
       xlink:href="#linearGradient50"
       id="linearGradient38"
       gradientUnits="userSpaceOnUse"
       x1="131.07692"
       y1="433.84616"
       x2="260.92307"
       y2="172.92308" />
    <linearGradient
       inkscape:collect="always"
       xlink:href="#linearGradient50"
       id="linearGradient39"
       gradientUnits="userSpaceOnUse"
       x1="131.07692"
       y1="433.84616"
       x2="260.92307"
       y2="172.92308" />
    <linearGradient
       inkscape:collect="always"
       xlink:href="#linearGradient50"
       id="linearGradient40"
       gradientUnits="userSpaceOnUse"
       x1="131.07692"
       y1="433.84616"
       x2="260.92307"
       y2="172.92308" />
    <linearGradient
       inkscape:collect="always"
       xlink:href="#linearGradient50"
       id="linearGradient41"
       gradientUnits="userSpaceOnUse"
       x1="131.07692"
       y1="433.84616"
       x2="260.92307"
       y2="172.92308" />
    <linearGradient
       inkscape:collect="always"
       xlink:href="#linearGradient50"
       id="linearGradient42"
       gradientUnits="userSpaceOnUse"
       x1="131.07692"
       y1="433.84616"
       x2="260.92307"
       y2="172.92308" />
  </defs>
  <sodipodi:namedview
     id="namedview40"
     pagecolor="#ffffff"
     bordercolor="#000000"
     borderopacity="0.25"
     inkscape:showpageshadow="2"
     inkscape:pageopacity="0.0"
     inkscape:pagecheckerboard="0"
     inkscape:deskcolor="#d1d1d1"
     inkscape:zoom="0.40625"
     inkscape:cx="30.769231"
     inkscape:cy="598.15385"
     inkscape:window-width="1920"
     inkscape:window-height="1027"
     inkscape:window-x="-8"
     inkscape:window-y="22"
     inkscape:window-maximized="1"
     inkscape:current-layer="svg40" />
  <g
     id="wave"
     transform="matrix(2.0694362,0,0,2.0694362,-24.030203,-47.285208)">
    <title
       id="title78">Wave</title>
    <g
       id="g43"
       style="fill:url(#linearGradient51);fill-opacity:1">
      <g
         fill="#01d3c8"
         id="g13"
         style="fill:url(#linearGradient2);fill-opacity:1">
        <path
           d="m 226,492 c -12.9,-1.8 -21.2,-3.4 -31,-5.9 -6.4,-1.7 -31,-10.1 -34,-11.6 -1.4,-0.7 -6.8,-3.4 -12,-5.9 -8.7,-4.2 -29.8,-16.7 -31,-18.5 -0.3,-0.4 -1.9,-1.6 -3.6,-2.6 C 104,441 75.5,412.7 64.6,398 56.6,387.2 47,372 47,370.1 c 0,-0.6 -0.4,-1.1 -0.9,-1.1 -0.5,0 -1.4,-1.4 -2,-3 -0.9,-2.8 -0.8,-3.2 1.7,-4.2 16.6,-6.5 27.7,-14.3 46.6,-32.7 18.8,-18.1 39.6,-46.1 50,-67.1 8.5,-17 20.6,-32.8 39.7,-51.9 20.7,-20.7 39.7,-34.6 65.9,-48.4 7.4,-3.8 24.3,-10.5 33,-13.1 14.8,-4.3 19.5,-4.9 36,-4.9 19,0 26,1.4 40.5,8.2 8.9,4.2 11.1,5.8 4.8,3.5 -21.7,-7.7 -54.3,16.5 -65.7,48.6 -2.2,6.1 -4.6,19.4 -4.6,25.5 0,5.8 2.1,17.7 4.5,25.2 2.2,7.1 9.4,20.8 14.5,27.9 7.9,10.8 24.3,25.7 34,31 1.9,1 3.7,2.2 4,2.5 0.5,0.7 21.6,10.9 22.4,10.9 0.2,0 1.7,0.5 3.3,1.2 3.1,1.3 7.7,2.7 16.8,5.2 26.2,7.3 66.7,7.6 84.9,0.6 5,-1.9 5,-2 -4.2,18.9 -5.8,13.1 -20.8,39.1 -24.2,42.1 -0.3,0.3 -2.2,2.8 -4.1,5.5 -8.3,11.7 -31.6,35 -43.1,43.2 -2.9,2 -5.5,4 -5.8,4.4 -0.3,0.3 -2.3,1.8 -4.5,3.2 -2.2,1.5 -5.6,3.8 -7.5,5.1 -1.9,1.4 -4.1,2.5 -4.7,2.5 -0.7,0.1 -1.3,0.5 -1.3,1 0,0.5 -1.2,1.4 -2.7,2 -1.6,0.6 -6.1,2.9 -10,5 -11.9,6.3 -29.3,13.3 -43.8,17.6 C 291.8,493 254.3,496 226,492 Z"
           id="path13"
           style="fill:url(#linearGradient1);fill-opacity:1" />
      </g>
      <g
         fill="#07c3c3"
         id="g20"
         style="fill:url(#linearGradient4);fill-opacity:1">
        <path
           d="m 226,492 c -12.9,-1.8 -21.2,-3.4 -31,-5.9 -6.4,-1.7 -31,-10.1 -34,-11.6 -1.4,-0.7 -6.8,-3.4 -12,-5.9 -8.7,-4.2 -29.8,-16.7 -31,-18.5 -0.3,-0.4 -1.9,-1.6 -3.6,-2.6 C 104,441 75.5,412.7 64.6,398 56.6,387.2 47,372 47,370.1 c 0,-0.6 -0.4,-1.1 -0.9,-1.1 -0.5,0 -1.4,-1.4 -2,-3 -0.9,-2.8 -0.8,-3.2 1.7,-4.2 16.6,-6.5 27.7,-14.3 46.6,-32.7 18.8,-18.1 39.6,-46.1 50,-67.1 6.9,-13.9 16.9,-27.8 30.4,-42.5 8.8,-9.6 28.9,-28.3 33,-30.7 2.8,-1.7 3,-1.7 5.2,0.2 1.2,1 4.2,2.2 6.6,2.6 2.4,0.3 4.4,1 4.4,1.5 0,0.5 0.3,0.8 0.8,0.7 1.5,-0.3 6.2,1.4 6.2,2.3 0,0.6 0.9,0.5 2,-0.1 1.4,-0.8 2,-0.8 2,0 0,0.6 0.5,0.8 1.2,0.4 0.7,-0.4 9.1,-0.8 18.9,-0.9 9.7,-0.1 18.1,-0.5 18.8,-0.9 0.6,-0.4 1.1,-0.3 1.1,0.1 0,0.5 1.5,0.8 3.3,0.6 10.9,-0.8 20.6,-1 20.2,-0.3 -0.3,0.5 0.1,1.3 1,1.7 1.3,0.8 1.2,1.5 -0.5,6.3 -2.5,6.8 -5,19.8 -5,26.5 0,5.8 2.1,17.7 4.5,25.2 2.2,7.1 9.4,20.8 14.5,27.9 7.9,10.8 24.3,25.7 34,31 1.9,1 3.7,2.2 4,2.5 0.5,0.7 21.6,10.9 22.4,10.9 0.2,0 1.7,0.5 3.3,1.2 3.1,1.3 7.7,2.7 16.8,5.2 26.2,7.3 66.7,7.6 84.9,0.6 5,-1.9 5,-2 -4.2,18.9 -5.8,13.1 -20.8,39.1 -24.2,42.1 -0.3,0.3 -2.2,2.8 -4.1,5.5 -8.3,11.7 -31.6,35 -43.1,43.2 -2.9,2 -5.5,4 -5.8,4.4 -0.3,0.3 -2.3,1.8 -4.5,3.2 -2.2,1.5 -5.6,3.8 -7.5,5.1 -1.9,1.4 -4.1,2.5 -4.7,2.5 -0.7,0.1 -1.3,0.5 -1.3,1 0,0.5 -1.2,1.4 -2.7,2 -1.6,0.6 -6.1,2.9 -10,5 -11.9,6.3 -29.3,13.3 -43.8,17.6 C 291.8,493 254.3,496 226,492 Z"
           id="path20"
           style="fill:url(#linearGradient3);fill-opacity:1" />
      </g>
      <g
         fill="#14b4bb"
         id="g21"
         style="fill:url(#linearGradient6);fill-opacity:1">
        <path
           d="m 226,492 c -12.9,-1.8 -21.2,-3.4 -31,-5.9 -6.4,-1.7 -31,-10.1 -34,-11.6 -1.4,-0.7 -6.8,-3.4 -12,-5.9 -8.7,-4.2 -29.8,-16.7 -31,-18.5 -0.3,-0.4 -1.9,-1.6 -3.6,-2.6 C 104,441 75.5,412.7 64.6,398 56.6,387.2 47,372 47,370.1 c 0,-0.6 -0.4,-1.1 -0.9,-1.1 -0.5,0 -1.4,-1.4 -2,-3 -0.9,-2.8 -0.8,-3.2 1.7,-4.2 16.6,-6.5 27.7,-14.3 46.6,-32.7 18.8,-18.1 39.6,-46.1 50,-67.1 7.9,-15.8 19.8,-31.8 36.4,-48.8 12.3,-12.5 10.4,-12.1 22,-5 1.7,1.1 3.2,1.6 3.2,1.1 0,-0.4 0.6,-0.1 1.3,0.7 0.7,0.8 1.8,1.6 2.5,1.8 2,0.4 6.2,3.3 6.2,4.3 0,0.5 0.6,0.6 1.4,0.3 0.8,-0.3 1.7,0 2.1,0.5 0.3,0.6 1.1,0.9 1.6,0.6 0.5,-0.4 0.9,-0.2 0.9,0.4 0,1.4 3.8,3.3 7.1,3.6 1.5,0.1 4.1,1.2 5.7,2.3 1.6,1.2 3.9,2 5,1.7 1.3,-0.2 2.6,0.3 3.2,1.3 0.5,0.9 1,1.3 1,0.9 0,-0.5 0.7,-0.1 1.6,0.7 0.8,0.9 1.9,1.4 2.4,1.1 0.4,-0.3 1,0.2 1.4,1 0.3,0.8 1.2,1.5 2.1,1.5 0.8,0 1.5,0.4 1.5,0.9 0,0.6 0.9,0.8 1.9,0.6 1.1,-0.2 2.2,0.3 2.5,1.1 0.3,0.9 1.1,1.2 1.6,0.9 1.4,-0.9 14.2,7.4 13.4,8.6 -0.8,1.4 0.6,5 1.7,4.4 0.8,-0.6 6.3,2.4 17.1,9.2 2.1,1.3 4.1,2.3 4.5,2.3 1.6,0.1 4.9,3.6 8.4,9 2,3 5.4,8.2 7.5,11.4 7,10.7 24.9,27.5 35.4,33.2 1.9,1 3.7,2.2 4,2.5 0.5,0.7 21.6,10.9 22.4,10.9 0.2,0 1.7,0.5 3.3,1.2 3.1,1.3 7.7,2.7 16.8,5.2 26.2,7.3 66.7,7.6 84.9,0.6 5,-1.9 5,-2 -4.2,18.9 -5.8,13.1 -20.8,39.1 -24.2,42.1 -0.3,0.3 -2.2,2.8 -4.1,5.5 -8.3,11.7 -31.6,35 -43.1,43.2 -2.9,2 -5.5,4 -5.8,4.4 -0.3,0.3 -2.3,1.8 -4.5,3.2 -2.2,1.5 -5.6,3.8 -7.5,5.1 -1.9,1.4 -4.1,2.5 -4.7,2.5 -0.7,0.1 -1.3,0.5 -1.3,1 0,0.5 -1.2,1.4 -2.7,2 -1.6,0.6 -6.1,2.9 -10,5 -11.9,6.3 -29.3,13.3 -43.8,17.6 C 291.8,493 254.3,496 226,492 Z"
           id="path21"
           style="fill:url(#linearGradient5);fill-opacity:1" />
      </g>
      <g
         fill="#25a7af"
         id="g22"
         style="fill:url(#linearGradient8);fill-opacity:1">
        <path
           d="m 226,492 c -12.9,-1.8 -21.2,-3.4 -31,-5.9 -6.4,-1.7 -31,-10.1 -34,-11.6 -1.4,-0.7 -6.8,-3.4 -12,-5.9 -8.7,-4.2 -29.8,-16.7 -31,-18.5 -0.3,-0.4 -1.9,-1.6 -3.6,-2.6 C 104,441 75.5,412.7 64.6,398 56.6,387.2 47,372 47,370.1 c 0,-0.6 -0.4,-1.1 -0.9,-1.1 -0.5,0 -1.4,-1.4 -2,-3 -0.9,-2.8 -0.8,-3.2 1.7,-4.2 16.6,-6.5 27.7,-14.3 46.6,-32.7 18.8,-18.1 39.6,-46.1 50,-67.1 6.9,-13.8 17.6,-28.8 30.5,-42.6 6.4,-6.8 9.1,-8.8 9.1,-6.5 0,0.5 1.5,1.6 3.3,2.5 5,2.5 9.5,5.2 11.1,6.6 0.9,0.6 2,0.9 2.5,0.6 0.5,-0.4 1.4,0.2 2,1.1 0.6,1 1.1,1.5 1.1,1 0,-0.4 1.8,0.4 3.9,1.9 2.2,1.4 4.5,2.3 5,1.9 0.6,-0.3 1.1,-0.2 1.1,0.4 0,0.6 1,1.5 2.2,2.2 1.8,1 2,0.9 1.4,-0.7 -0.6,-1.8 -0.5,-1.8 0.9,0 0.8,1.1 1.5,1.6 1.5,1 0,-0.5 0.4,-0.3 0.9,0.5 0.5,0.8 1.6,1.5 2.3,1.7 0.7,0.1 4.2,2 7.7,4.3 7.3,4.6 6.4,4.3 11.4,4.5 2.1,0.1 4.2,0.8 4.7,1.6 0.6,0.8 1,1.1 1,0.7 0,-0.5 1.2,0 2.8,1.1 1.5,1.1 3.6,2.2 4.7,2.6 4.8,1.4 18.8,11.3 18,12.6 -0.3,0.5 3.6,2.9 8.7,5.4 18.5,9.1 26.4,13.7 30.5,17.9 15,15.2 26.7,25.1 34.3,29.3 1.9,1 3.7,2.2 4,2.5 0.5,0.7 21.6,10.9 22.4,10.9 0.2,0 1.7,0.5 3.3,1.2 3.1,1.3 7.7,2.7 16.8,5.2 26.2,7.3 66.7,7.6 84.9,0.6 5,-1.9 5,-2 -4.2,18.9 -5.8,13.1 -20.8,39.1 -24.2,42.1 -0.3,0.3 -2.2,2.8 -4.1,5.5 -8.3,11.7 -31.6,35 -43.1,43.2 -2.9,2 -5.5,4 -5.8,4.4 -0.3,0.3 -2.3,1.8 -4.5,3.2 -2.2,1.5 -5.6,3.8 -7.5,5.1 -1.9,1.4 -4.1,2.5 -4.7,2.5 -0.7,0.1 -1.3,0.5 -1.3,1 0,0.5 -1.2,1.4 -2.7,2 -1.6,0.6 -6.1,2.9 -10,5 -11.9,6.3 -29.3,13.3 -43.8,17.6 C 291.8,493 254.3,496 226,492 Z"
           id="path22"
           style="fill:url(#linearGradient7);fill-opacity:1" />
      </g>
      <g
         fill="#3198a7"
         id="g23"
         style="fill:url(#linearGradient10);fill-opacity:1">
        <path
           d="m 226,492 c -12.9,-1.8 -21.2,-3.4 -31,-5.9 -6.4,-1.7 -31,-10.1 -34,-11.6 -1.4,-0.7 -6.8,-3.4 -12,-5.9 -8.7,-4.2 -29.8,-16.7 -31,-18.5 -0.3,-0.4 -1.9,-1.6 -3.6,-2.6 C 104,441 75.5,412.7 64.6,398 56.6,387.2 47,372 47,370.1 c 0,-0.6 -0.4,-1.1 -0.9,-1.1 -0.5,0 -1.4,-1.4 -2,-3 -0.9,-2.8 -0.8,-3.2 1.7,-4.2 16.6,-6.5 27.7,-14.3 46.6,-32.7 18.8,-18.1 39.6,-46.1 50,-67.1 3.6,-7.1 4.3,-8.4 9.1,-15.5 4.7,-7.2 15.9,-21.8 17.7,-23.2 1.7,-1.3 6,-2.4 5.3,-1.3 -0.6,0.9 4.3,4.3 6.2,4.3 0.7,0 1.1,0.3 0.8,0.5 -0.9,1 3.3,3.2 4.9,2.6 1.1,-0.4 1.6,-0.1 1.6,1.1 0,0.9 0.5,1.3 1,1 0.6,-0.3 1,-0.1 1,0.4 0,0.6 0.4,1.1 1,1.1 0.5,0 2.5,1.1 4.5,2.4 2,1.4 4.4,2.3 5.5,2.1 1.3,-0.2 1.7,0.1 1.4,1 -0.4,1 0,1.3 1.5,1 1.2,-0.2 2.1,0 2.1,0.5 0,1.1 7.6,5.2 10.5,5.7 1,0.2 2.3,0.9 2.7,1.6 0.4,0.6 0.8,0.8 0.8,0.4 0,-0.9 8.5,3.4 13.4,6.7 1.6,1 4,2 5.5,2.2 3.9,0.3 3.9,0.3 5.3,1.7 0.7,0.6 3.3,2.3 5.7,3.6 2.4,1.3 5.2,3.2 6.2,4.2 1.1,1.1 2.4,1.9 3.1,1.9 0.6,0 0.8,0.3 0.5,0.7 -1.1,1.1 4.5,4.3 7.5,4.3 1.5,0 5.3,1.6 8.4,3.4 3.2,1.9 6.1,3.3 6.6,3 0.4,-0.3 0.8,-0.1 0.8,0.5 0,0.5 0.9,0.8 1.9,0.6 1.1,-0.2 3.2,0.7 4.7,2.2 1.5,1.3 3.5,2.6 4.4,2.8 1,0.2 4.8,2.2 8.5,4.4 3.7,2.3 7.2,3.8 7.8,3.4 0.6,-0.4 0.7,-0.1 0.2,0.7 -0.6,1 -0.4,1.2 0.9,0.7 1,-0.4 1.9,-0.1 2.2,0.6 0.3,0.8 2.1,1.2 4.9,1.1 3.5,-0.1 4.9,0.3 7.2,2.5 4.2,4.1 15.3,12.5 19.3,14.7 1.9,1 3.7,2.2 4,2.5 0.5,0.7 21.6,10.9 22.4,10.9 0.2,0 1.7,0.5 3.3,1.2 3.1,1.3 7.7,2.7 16.8,5.2 26.2,7.3 66.7,7.6 84.9,0.6 5,-1.9 5,-2 -4.2,18.9 -5.8,13.1 -20.8,39.1 -24.2,42.1 -0.3,0.3 -2.2,2.8 -4.1,5.5 -8.3,11.7 -31.6,35 -43.1,43.2 -2.9,2 -5.5,4 -5.8,4.4 -0.3,0.3 -2.3,1.8 -4.5,3.2 -2.2,1.5 -5.6,3.8 -7.5,5.1 -1.9,1.4 -4.1,2.5 -4.7,2.5 -0.7,0.1 -1.3,0.5 -1.3,1 0,0.5 -1.2,1.4 -2.7,2 -1.6,0.6 -6.1,2.9 -10,5 -11.9,6.3 -29.3,13.3 -43.8,17.6 C 291.8,493 254.3,496 226,492 Z"
           id="path23"
           style="fill:url(#linearGradient9);fill-opacity:1" />
      </g>
      <g
         fill="#0da4ba"
         id="g24"
         style="fill:url(#linearGradient12);fill-opacity:1">
        <path
           d="m 226,492 c -12.9,-1.8 -21.2,-3.4 -31,-5.9 -6.4,-1.7 -31,-10.1 -34,-11.6 -1.4,-0.7 -6.8,-3.4 -12,-5.9 -8.7,-4.2 -29.8,-16.7 -31,-18.5 -0.3,-0.4 -1.9,-1.6 -3.6,-2.6 C 104,441 75.5,412.7 64.6,398 56.6,387.2 47,372 47,370.1 c 0,-0.6 -0.4,-1.1 -0.9,-1.1 -0.5,0 -1.4,-1.4 -2,-3 -0.9,-2.8 -0.8,-3.2 1.7,-4.2 16.6,-6.5 27.7,-14.3 46.6,-32.7 18.8,-18.2 40,-46.6 50,-67.1 3,-6.1 3.3,-6.7 9.1,-15.4 5.4,-8.2 11.8,-16.6 12.6,-16.6 0.4,0 2.4,1.6 4.5,3.5 2.1,2 4.4,3.3 5.2,3 0.7,-0.2 1,0 0.7,0.5 -0.3,0.6 -0.3,1 0.2,1.1 3,0.3 4.9,1.1 8.3,3.4 2.1,1.5 4.4,2.7 5.2,2.9 1.2,0.2 5.5,2.5 14.4,7.7 1.7,1.1 3.5,1.5 3.9,1.1 0.5,-0.4 0.5,-0.2 0.1,0.5 -1,1.7 2.8,3.5 4.2,2.1 0.9,-0.9 1.2,-0.9 1.2,0 0,0.7 0.3,1.1 0.8,1 0.4,-0.1 2.7,1 5.2,2.6 12,7.5 12.4,8 9.4,11 -0.8,0.9 -1.1,1.7 -0.5,1.7 3.7,0.5 7.2,2 6.6,3 -0.6,0.8 0.9,1.3 2.9,1 0.5,-0.1 1.6,0.4 2.5,1.2 4.2,3.6 15.3,9.7 16.4,9.1 0.7,-0.4 0.9,-0.4 0.5,0.1 -1,1 2.9,3.8 4.2,3 0.5,-0.3 1.7,0.6 2.6,2 0.9,1.4 2.2,2.4 2.9,2.1 0.7,-0.2 2.5,0.4 4,1.4 1.6,1.1 3.2,1.7 3.7,1.4 0.4,-0.3 0.8,-0.1 0.8,0.4 0,1.2 6.6,5.2 9.4,5.8 1,0.2 2.6,1 3.5,1.7 1.9,1.6 8.3,4.3 9.4,3.9 0.4,-0.1 0.7,0.3 0.7,0.9 0,0.5 0.5,0.7 1,0.4 0.6,-0.3 1,-0.2 1,0.4 0,2.5 10.3,5 11.6,2.9 0.3,-0.5 1.1,-0.5 1.7,-0.1 2,1.2 4.6,1 5.2,-0.4 0.3,-0.8 1,-1.1 1.7,-0.7 1.6,1 4.8,1.3 5.3,0.4 0.2,-0.4 -1.5,-1.7 -3.8,-3 -5.2,-2.9 -9.5,-5.8 -12.7,-8.7 -1.4,-1.2 -4.4,-3.2 -6.7,-4.5 -15.3,-8.5 -35.2,-22.1 -33,-22.6 0.8,-0.2 4.1,1.3 7.2,3.2 3.2,1.9 6.2,3.3 6.7,3 0.4,-0.3 0.8,-0.1 0.8,0.5 0,0.5 0.9,0.8 1.9,0.6 1.1,-0.2 3.2,0.7 4.7,2.2 1.5,1.3 3.5,2.6 4.4,2.8 1,0.2 4.8,2.2 8.5,4.4 3.7,2.3 7.2,3.8 7.8,3.4 0.6,-0.4 0.7,-0.1 0.2,0.7 -0.6,1 -0.4,1.2 0.9,0.7 1,-0.4 1.9,-0.1 2.2,0.6 0.3,0.8 2.1,1.2 4.9,1.1 3.5,-0.1 4.9,0.3 7.2,2.5 4.2,4.1 15.3,12.5 19.3,14.7 1.9,1 3.7,2.2 4,2.5 0.5,0.7 21.6,10.9 22.4,10.9 0.2,0 1.7,0.5 3.3,1.2 3.1,1.3 7.7,2.7 16.8,5.2 26.2,7.3 66.7,7.6 84.9,0.6 5,-1.9 5,-2 -4.2,18.9 -5.8,13.1 -20.8,39.1 -24.2,42.1 -0.3,0.3 -2.2,2.8 -4.1,5.5 -8.3,11.7 -31.6,35 -43.1,43.2 -2.9,2 -5.5,4 -5.8,4.4 -0.3,0.3 -2.3,1.8 -4.5,3.2 -2.2,1.5 -5.6,3.8 -7.5,5.1 -1.9,1.4 -4.1,2.5 -4.7,2.5 -0.7,0.1 -1.3,0.5 -1.3,1 0,0.5 -1.2,1.4 -2.7,2 -1.6,0.6 -6.1,2.9 -10,5 -11.9,6.3 -29.3,13.3 -43.8,17.6 C 291.8,493 254.3,496 226,492 Z"
           id="path24"
           style="fill:url(#linearGradient11);fill-opacity:1" />
      </g>
      <g
         fill="#3f8d9e"
         id="g25"
         style="fill:url(#linearGradient14);fill-opacity:1">
        <path
           d="m 226,492 c -12.9,-1.8 -21.2,-3.4 -31,-5.9 -6.4,-1.7 -31,-10.1 -34,-11.6 -1.4,-0.7 -6.8,-3.4 -12,-5.9 -8.7,-4.2 -29.8,-16.7 -31,-18.5 -0.3,-0.4 -1.9,-1.6 -3.6,-2.6 C 104,441 75.5,412.7 64.6,398 56.6,387.2 47,372 47,370.1 c 0,-0.6 -0.4,-1.1 -0.9,-1.1 -0.5,0 -1.4,-1.4 -2,-3 -0.9,-2.8 -0.8,-3.2 1.7,-4.2 16.6,-6.5 27.7,-14.3 46.6,-32.7 18.8,-18.2 40,-46.6 50,-67.1 3,-6.1 3.3,-6.7 9.1,-15.4 5.4,-8.2 11.8,-16.6 12.6,-16.6 0.4,0 2.4,1.6 4.5,3.5 2.1,2 4.4,3.3 5.2,3 0.7,-0.2 1,0 0.7,0.5 -0.3,0.6 -0.3,1 0.2,1.1 3,0.3 4.9,1.1 8.3,3.4 2.1,1.5 4.4,2.7 5.2,2.9 1.2,0.2 5.5,2.5 14.4,7.7 1.7,1.1 3.5,1.5 3.9,1.1 0.5,-0.4 0.5,-0.2 0.1,0.5 -1,1.7 2.8,3.5 4.2,2.1 0.9,-0.9 1.2,-0.9 1.2,0 0,0.7 0.3,1.1 0.8,1 0.4,-0.1 2.7,1 5.2,2.6 12,7.5 12.4,8 9.4,11 -0.8,0.9 -1.1,1.7 -0.5,1.7 3.7,0.5 7.2,2 6.6,3 -0.6,0.8 0.9,1.3 2.9,1 0.5,-0.1 1.6,0.4 2.5,1.2 4.2,3.6 15.3,9.7 16.4,9.1 0.7,-0.4 0.9,-0.4 0.5,0.1 -1,1 2.9,3.8 4.2,3 0.5,-0.3 1.7,0.6 2.6,2 0.9,1.4 2.2,2.4 2.9,2.1 0.7,-0.2 2.5,0.4 4,1.4 1.6,1.1 3.2,1.7 3.7,1.4 0.4,-0.3 0.8,-0.1 0.8,0.4 0,1.2 6.6,5.2 9.4,5.8 1,0.2 2.6,1 3.5,1.7 1.9,1.6 8.3,4.3 9.4,3.9 0.4,-0.1 0.7,0.3 0.7,0.9 0,0.5 0.5,0.7 1,0.4 0.6,-0.3 1,-0.2 1,0.4 0,1.5 5.2,3.9 7.6,3.5 1.2,-0.2 2.7,0.3 3.4,1.1 0.7,0.8 1.7,1.5 2.2,1.5 0.6,0 4.8,2.3 9.4,5.1 4.7,2.9 8.7,4.9 9,4.6 0.4,-0.3 3.1,0.9 6,2.8 3,1.9 6.5,3.5 7.7,3.5 1.2,0 4.6,1.6 7.6,3.5 2.9,1.9 5.9,3.5 6.7,3.5 0.8,0 1.4,0.5 1.4,1.1 0,0.5 0.5,0.7 1,0.4 0.6,-0.4 2.2,0 3.4,0.9 1.3,0.8 3.3,1.3 4.4,1.1 1.6,-0.3 1.9,0 1.5,1.2 -0.4,1.1 -0.2,1.4 0.5,0.9 0.7,-0.4 1.2,-0.2 1.2,0.5 0,0.8 0.4,0.8 1.5,-0.1 1.2,-1 1.6,-0.9 2.1,0.4 0.3,0.9 1,1.3 1.5,1 0.5,-0.3 2.3,0.6 4,2 1.7,1.4 3.4,2.6 3.9,2.6 0.5,0 1.5,0.6 2.2,1.3 3.2,3.1 9.7,7.6 14.8,10.3 3,1.6 5.7,3.2 6,3.5 1.2,1.5 9.2,4.9 10,4.4 0.6,-0.4 1.3,0.1 1.6,0.9 0.3,0.9 1,1.3 1.5,1 0.5,-0.3 0.9,0 0.9,0.6 0,0.6 0.5,0.8 1.1,0.5 0.5,-0.4 2.9,0.5 5.2,2.1 2.2,1.5 4.9,2.7 5.9,2.8 1,0.1 1.7,0.5 1.6,0.9 -0.4,1.1 4.4,3.7 5.4,3.1 0.5,-0.3 0.8,0 0.8,0.6 0,0.6 0.5,0.8 1,0.5 0.6,-0.3 1,-0.1 1,0.4 0,0.6 0.3,1 0.8,0.9 0.4,-0.1 2.4,0.4 4.4,1.1 3.7,1.2 3.8,1.3 2.3,4.1 -0.8,1.5 -2,3.4 -2.7,4.2 -0.8,0.7 -2.9,3.6 -4.9,6.3 -8.4,11.8 -31.6,35 -43.1,43.2 -2.9,2 -5.5,4 -5.8,4.4 -0.3,0.3 -2.3,1.8 -4.5,3.2 -2.2,1.5 -5.6,3.8 -7.5,5.1 -1.9,1.4 -4.1,2.5 -4.7,2.5 -0.7,0.1 -1.3,0.5 -1.3,1 0,0.5 -1.2,1.4 -2.7,2 -1.6,0.6 -6.1,2.9 -10,5 -11.9,6.3 -29.3,13.3 -43.8,17.6 C 291.8,493 254.3,496 226,492 Z"
           id="path25"
           style="fill:url(#linearGradient13);fill-opacity:1" />
      </g>
      <g
         fill="#4c8796"
         id="g26"
         style="fill:url(#linearGradient16);fill-opacity:1">
        <path
           d="m 226,492 c -12.9,-1.8 -21.2,-3.4 -31,-5.9 -6.4,-1.7 -31,-10.1 -34,-11.6 -1.4,-0.7 -6.8,-3.4 -12,-5.9 -8.7,-4.2 -29.8,-16.7 -31,-18.5 -0.3,-0.4 -1.9,-1.6 -3.6,-2.6 C 104,441 75.5,412.7 64.6,398 56.6,387.2 47,372 47,370.1 c 0,-0.6 -0.4,-1.1 -0.9,-1.1 -0.5,0 -1.4,-1.4 -2,-3 -0.9,-2.8 -0.8,-3.2 1.7,-4.2 16.6,-6.5 27.7,-14.3 46.6,-32.7 18.8,-18.2 39.9,-46.4 50,-67.1 1.5,-3 3.7,-7.1 4.9,-9 7,-11.3 9,-14 10,-14 1.2,0 16.1,8.6 26.1,15.2 3.2,2.1 6.3,3.5 7,3.1 0.6,-0.3 0.8,-0.2 0.4,0.2 -0.8,0.9 11.2,8.5 14,8.9 0.9,0.2 1.7,1.2 1.7,2.3 0,2.1 2.2,5.3 3.7,5.3 0.5,0 3.3,1.8 6.2,4 2.9,2.2 5.6,4 6,4 0.4,0 1.4,0.6 2.1,1.3 3.4,3 4.5,3.7 4.5,3 0,-0.4 0.7,0.2 1.5,1.3 0.8,1 1.5,1.5 1.5,1 0,-0.6 0.6,-0.2 1.3,0.8 0.7,0.9 1.9,1.8 2.7,1.9 0.8,0.2 2.2,0.7 3,1.2 4.5,2.8 9.9,5.3 10.4,4.8 0.3,-0.4 0.6,-0.1 0.6,0.5 0,0.6 2.5,2.5 5.6,4.4 3,1.8 7.2,4.3 9.2,5.5 2,1.3 4.5,2 5.5,1.7 1.2,-0.4 1.7,0 1.7,1.2 0,1 0.3,1.4 0.6,1.1 0.4,-0.3 2.5,0.5 4.8,1.8 2.9,1.7 4.6,2.1 5.2,1.5 0.7,-0.7 1.8,-0.5 3.5,0.8 1.3,1 5.8,3.8 9.9,6.2 4.1,2.4 9.6,5.9 12.3,7.8 2.6,1.8 4.7,3.1 4.7,2.8 0,-1.1 6.4,2.5 9.2,5.1 1.4,1.4 3.1,2.2 3.7,1.8 0.7,-0.3 3.6,0.7 6.5,2.4 4,2.2 5.6,2.7 6.5,1.8 0.8,-0.8 1.1,-0.8 1.1,0.3 0,0.7 0.3,1 0.7,0.7 0.3,-0.4 2.6,0.5 5,1.9 2.4,1.4 4.8,2.2 5.3,1.9 0.6,-0.4 0.9,-0.1 0.8,0.7 -0.4,1.6 2.4,1.8 2.9,0.2 0.2,-0.6 -0.8,-1.6 -2.2,-2.2 -1.4,-0.6 -2.4,-1.6 -2.3,-2.1 0.3,-1.1 -4.1,-4.4 -13.7,-10.3 -3.8,-2.3 -7.5,-4.7 -8.2,-5.3 -0.6,-0.5 -3.4,-2.3 -6.2,-4 -2.8,-1.6 -5.1,-3.4 -5.1,-3.8 0,-0.5 0.4,-0.6 0.9,-0.3 0.5,0.4 1.1,0.1 1.3,-0.5 0.2,-0.6 2.5,0.2 5.6,2.2 2.9,1.7 5.5,2.9 5.8,2.6 0.4,-0.3 3.1,0.9 6,2.8 3,1.9 6.5,3.5 7.7,3.5 1.2,0 4.6,1.6 7.6,3.5 2.9,1.9 5.9,3.5 6.7,3.5 0.8,0 1.4,0.5 1.4,1.1 0,0.5 0.5,0.7 1,0.4 0.6,-0.4 2.2,0 3.4,0.9 1.3,0.8 3.3,1.3 4.4,1.1 1.6,-0.3 1.9,0 1.5,1.2 -0.4,1.1 -0.2,1.4 0.5,0.9 0.7,-0.4 1.2,-0.2 1.2,0.5 0,0.8 0.4,0.8 1.5,-0.1 1.2,-1 1.6,-0.9 2.1,0.4 0.3,0.9 1,1.3 1.5,1 0.5,-0.3 2.3,0.6 4,2 1.7,1.4 3.4,2.6 3.9,2.6 0.5,0 1.5,0.6 2.2,1.3 3.2,3.1 9.7,7.6 14.8,10.3 3,1.6 5.7,3.2 6,3.5 1.2,1.5 9.2,4.9 10,4.4 0.6,-0.4 1.3,0.1 1.6,0.9 0.3,0.9 1,1.3 1.5,1 0.5,-0.3 0.9,0 0.9,0.6 0,0.6 0.5,0.8 1.1,0.5 0.5,-0.4 2.9,0.5 5.2,2.1 2.2,1.5 4.9,2.7 5.9,2.8 1,0.1 1.7,0.5 1.6,0.9 -0.4,1.1 4.4,3.7 5.4,3.1 0.5,-0.3 0.8,0 0.8,0.6 0,0.6 0.5,0.8 1,0.5 0.6,-0.3 1,-0.1 1,0.4 0,0.6 0.3,1 0.8,0.9 0.4,-0.1 2.4,0.4 4.4,1.1 3.7,1.2 3.8,1.3 2.3,4.1 -0.8,1.5 -2,3.4 -2.7,4.2 -0.8,0.7 -2.9,3.6 -4.9,6.3 -8.4,11.8 -31.6,35 -43.1,43.2 -2.9,2 -5.5,4 -5.8,4.4 -0.3,0.3 -2.3,1.8 -4.5,3.2 -2.2,1.5 -5.6,3.8 -7.5,5.1 -1.9,1.4 -4.1,2.5 -4.7,2.5 -0.7,0.1 -1.3,0.5 -1.3,1 0,0.5 -1.2,1.4 -2.7,2 -1.6,0.6 -6.1,2.9 -10,5 -11.9,6.3 -29.3,13.3 -43.8,17.6 C 291.8,493 254.3,496 226,492 Z"
           id="path26"
           style="fill:url(#linearGradient15);fill-opacity:1" />
      </g>
      <g
         fill="#2093ae"
         id="g27"
         style="fill:url(#linearGradient18);fill-opacity:1">
        <path
           d="m 226,492 c -12.9,-1.8 -21.2,-3.4 -31,-5.9 -6.4,-1.7 -31,-10.1 -34,-11.6 -1.4,-0.7 -6.8,-3.4 -12,-5.9 -8.7,-4.2 -29.8,-16.7 -31,-18.5 -0.3,-0.4 -1.9,-1.6 -3.6,-2.6 C 104,441 75.5,412.7 64.6,398 56.6,387.2 47,372 47,370.1 c 0,-0.6 -0.4,-1.1 -0.9,-1.1 -0.5,0 -1.4,-1.4 -2,-3 -0.9,-2.8 -0.8,-3.2 1.7,-4.2 16.6,-6.5 27.7,-14.3 46.6,-32.7 18.8,-18.2 39.9,-46.4 50,-67.1 1.5,-3 3.8,-7.3 5,-9.5 2.3,-3.9 4.6,-5.7 4.6,-3.6 0,0.6 0.6,1.1 1.4,1.1 0.8,0 2.9,1.4 4.7,3.1 1.8,1.7 4.2,3.3 5.2,3.5 1.1,0.2 2.7,1 3.6,1.7 0.9,0.8 3.5,2.5 5.9,3.7 2.3,1.3 4.2,2.8 4.2,3.4 0,0.5 0.3,0.7 0.6,0.3 0.3,-0.3 2.4,0.5 4.5,1.9 2.2,1.4 4.5,2.2 5.1,1.8 0.7,-0.4 0.8,-0.3 0.4,0.4 -0.4,0.7 -0.4,1.2 0.1,1.3 2.8,0.2 4.6,1 7.3,2.9 1.7,1.2 3.7,2 4.4,1.7 0.8,-0.3 3.1,0.9 5.3,2.8 2.1,1.8 4.5,3.4 5.4,3.6 2.8,0.7 20.7,13.4 20.2,14.3 -0.4,0.5 -0.2,0.7 0.3,0.4 1,-0.6 4,1.3 12.5,7.8 3,2.3 7.7,5.4 10.4,6.9 2.8,1.5 6.4,3.7 8,5 1.7,1.2 4.1,2.1 5.5,2 1.4,-0.2 3.5,0.4 4.8,1.2 8.8,5.5 12.4,7.3 11.9,5.9 -1,-2.6 0.9,-2.6 3.4,0 1.2,1.3 2.8,2.3 3.4,2 0.6,-0.2 4,1.3 7.5,3.5 3.5,2.1 6.7,3.6 7.2,3.3 0.4,-0.3 0.8,0 0.8,0.6 0,0.6 0.4,0.9 0.9,0.5 0.5,-0.3 1.2,-0.1 1.6,0.5 0.3,0.5 1.6,0.8 2.8,0.6 1.2,-0.2 3,0 3.9,0.5 1,0.6 1.9,0.5 2.3,-0.1 0.3,-0.5 -0.5,-1.5 -1.9,-2.2 -1.4,-0.6 -2.6,-1.5 -2.6,-2 0,-1.2 6,2 9.2,4.9 1.4,1.4 3.1,2.2 3.7,1.8 0.7,-0.3 3.6,0.7 6.5,2.4 4,2.2 5.6,2.7 6.5,1.8 0.8,-0.8 1.1,-0.8 1.1,0.3 0,0.7 0.3,1 0.7,0.7 0.3,-0.4 2.6,0.5 5,1.9 2.4,1.4 4.8,2.2 5.3,1.9 0.6,-0.4 0.9,-0.1 0.8,0.7 -0.4,1.6 2.4,1.8 2.9,0.2 0.2,-0.6 -0.8,-1.6 -2.2,-2.2 -1.4,-0.6 -2.4,-1.6 -2.3,-2.1 0.3,-1.1 -4.1,-4.4 -13.7,-10.3 -3.8,-2.3 -7.5,-4.7 -8.2,-5.3 -0.6,-0.5 -3.4,-2.3 -6.2,-4 -2.8,-1.6 -5.1,-3.4 -5.1,-3.8 0,-0.5 0.4,-0.6 0.9,-0.3 0.5,0.4 1.1,0.1 1.3,-0.5 0.2,-0.6 2.5,0.2 5.6,2.2 2.9,1.7 5.5,2.9 5.8,2.6 0.4,-0.3 3.1,0.9 6,2.8 3,1.9 6.5,3.5 7.7,3.5 1.2,0 4.6,1.6 7.6,3.5 2.9,1.9 5.9,3.5 6.7,3.5 0.8,0 1.4,0.5 1.4,1.1 0,0.5 0.5,0.7 1,0.4 0.6,-0.4 2.2,0 3.4,0.9 1.3,0.8 3.3,1.3 4.4,1.1 1.6,-0.3 1.9,0 1.5,1.2 -0.4,1.1 -0.2,1.4 0.5,0.9 0.7,-0.4 1.2,-0.2 1.2,0.5 0,0.8 0.4,0.8 1.5,-0.1 1.2,-1 1.6,-0.9 2.1,0.4 0.3,0.9 1,1.3 1.5,1 0.5,-0.3 2.3,0.6 4,2 1.7,1.4 3.4,2.6 3.9,2.6 0.5,0 1.5,0.6 2.2,1.3 3.2,3.1 9.7,7.6 14.8,10.3 3,1.6 5.7,3.2 6,3.5 1.2,1.5 9.2,4.9 10,4.4 0.6,-0.4 1.3,0.1 1.6,0.9 0.3,0.9 1,1.3 1.5,1 0.5,-0.3 0.9,0 0.9,0.6 0,0.6 0.5,0.8 1.1,0.5 0.5,-0.4 2.9,0.5 5.2,2.1 2.2,1.5 4.9,2.7 5.9,2.8 1,0.1 1.7,0.5 1.6,0.9 -0.4,1.1 4.4,3.7 5.4,3.1 0.5,-0.3 0.8,0 0.8,0.6 0,0.6 0.5,0.8 1,0.5 0.6,-0.3 1,-0.1 1,0.4 0,0.6 0.3,1 0.8,0.9 0.4,-0.1 2.4,0.4 4.4,1.1 3.7,1.2 3.8,1.3 2.3,4.1 -0.8,1.5 -2,3.4 -2.7,4.2 -0.8,0.7 -2.9,3.6 -4.9,6.3 -8.4,11.8 -31.6,35 -43.1,43.2 -2.9,2 -5.5,4 -5.8,4.4 -0.3,0.3 -2.3,1.8 -4.5,3.2 -2.2,1.5 -5.6,3.8 -7.5,5.1 -1.9,1.4 -4.1,2.5 -4.7,2.5 -0.7,0.1 -1.3,0.5 -1.3,1 0,0.5 -1.2,1.4 -2.7,2 -1.6,0.6 -6.1,2.9 -10,5 -11.9,6.3 -29.3,13.3 -43.8,17.6 C 291.8,493 254.3,496 226,492 Z"
           id="path27"
           style="fill:url(#linearGradient17);fill-opacity:1" />
      </g>
      <g
         fill="#55768f"
         id="g28"
         style="fill:url(#linearGradient20);fill-opacity:1">
        <path
           d="m 226,492 c -12.9,-1.8 -21.2,-3.4 -31,-5.9 -6.4,-1.7 -31,-10.1 -34,-11.6 -1.4,-0.7 -6.8,-3.4 -12,-5.9 -8.7,-4.2 -29.8,-16.7 -31,-18.5 -0.3,-0.4 -1.9,-1.6 -3.6,-2.6 C 104,441 75.5,412.7 64.6,398 56.6,387.2 47,372 47,370.1 c 0,-0.6 -0.4,-1.1 -0.9,-1.1 -0.5,0 -1.4,-1.4 -2,-3 -0.9,-2.8 -0.8,-3.2 1.7,-4.2 16.6,-6.5 27.7,-14.3 46.6,-32.7 18.8,-18.2 39.9,-46.4 50,-67.1 1.5,-3 3.8,-7.3 5,-9.5 2.3,-3.9 4.6,-5.7 4.6,-3.6 0,0.6 0.6,1.1 1.4,1.1 0.8,0 2.9,1.4 4.7,3.1 1.8,1.7 4.2,3.3 5.2,3.5 1.1,0.2 2.7,1 3.6,1.7 0.9,0.8 3.5,2.5 5.9,3.7 2.3,1.3 4.2,2.8 4.2,3.4 0,0.5 0.3,0.7 0.6,0.3 0.3,-0.3 2.4,0.5 4.5,1.9 2.2,1.4 4.5,2.2 5.1,1.8 0.7,-0.4 0.8,-0.3 0.4,0.4 -0.4,0.7 -0.4,1.2 0.1,1.3 2.8,0.2 4.6,1 7.3,2.9 1.7,1.2 3.7,2 4.4,1.7 0.8,-0.3 3.1,0.9 5.3,2.8 2.1,1.8 4.5,3.4 5.4,3.6 2.8,0.7 20.7,13.4 20.2,14.3 -0.4,0.5 -0.2,0.7 0.3,0.4 1,-0.6 4,1.3 12.5,7.8 3,2.3 7.7,5.4 10.4,6.9 2.8,1.5 6.4,3.7 8,5 1.7,1.2 4.1,2.1 5.5,2 1.4,-0.2 3.5,0.4 4.8,1.2 8.8,5.5 12.4,7.3 11.9,5.9 -1,-2.6 0.9,-2.6 3.4,0 1.2,1.3 2.8,2.3 3.4,2 0.6,-0.2 4,1.3 7.5,3.5 3.5,2.1 6.7,3.6 7.2,3.3 0.4,-0.3 0.8,0 0.8,0.6 0,0.6 0.4,0.9 0.9,0.5 0.5,-0.3 1.2,-0.1 1.6,0.5 0.3,0.5 1.6,0.8 2.8,0.6 1.2,-0.2 3,0 3.9,0.5 1,0.6 1.9,0.5 2.3,-0.1 0.3,-0.5 -0.5,-1.5 -1.9,-2.2 -1.4,-0.6 -2.6,-1.5 -2.6,-2 0,-1.2 6,2 9.2,4.9 1.4,1.4 3.1,2.2 3.7,1.8 0.7,-0.3 3.6,0.7 6.5,2.4 4,2.2 5.6,2.7 6.5,1.8 0.8,-0.8 1.1,-0.8 1.1,0.3 0,0.7 0.3,1 0.7,0.7 0.3,-0.4 2.6,0.5 5,1.9 2.4,1.4 4.8,2.2 5.3,1.9 0.6,-0.4 0.9,-0.1 0.8,0.7 -0.2,0.7 0.4,1.3 1.2,1.3 1.9,0 15.1,6.9 20.7,10.6 2.3,1.6 4.6,2.9 5.2,2.9 0.6,0 1.1,0.4 1.1,0.9 0,0.8 6.5,5.3 8,5.6 0.3,0 2.4,1.3 4.7,2.8 2.4,1.5 4.5,2.7 4.8,2.7 0.9,0 8.8,5.4 10.8,7.3 1,1 2.2,1.5 2.7,1.2 0.5,-0.3 3.1,0.8 5.7,2.4 2.6,1.7 4.9,2.7 5.1,2.2 0.4,-1.1 5.3,-0.1 7.2,1.4 1.6,1.2 3.8,2.2 5.4,2.3 0.5,0 1.3,0.7 1.8,1.6 0.6,1 1.8,1.5 3.4,1.2 1.3,-0.3 2.4,0 2.4,0.6 0,0.7 0.5,0.6 1.4,-0.1 2.2,-1.9 2.7,0.3 0.8,3.7 -4.3,8 -31.5,35.5 -43.4,43.9 -2.9,2 -5.5,4 -5.8,4.4 -0.3,0.3 -2.3,1.8 -4.5,3.2 -2.2,1.5 -5.6,3.8 -7.5,5.1 -1.9,1.4 -4.1,2.5 -4.7,2.5 -0.7,0.1 -1.3,0.5 -1.3,1 0,0.5 -1.2,1.4 -2.7,2 -1.6,0.6 -6.1,2.9 -10,5 -11.9,6.3 -29.3,13.3 -43.8,17.6 C 291.8,493 254.3,496 226,492 Z"
           id="path28"
           style="fill:url(#linearGradient19);fill-opacity:1" />
      </g>
      <g
         fill="#2e87a5"
         id="g29"
         style="fill:url(#linearGradient22);fill-opacity:1">
        <path
           d="m 419,423.6 c -0.8,-0.7 -4,-2.7 -7,-4.3 -3,-1.7 -8.2,-4.7 -11.5,-6.6 -3.3,-2 -8.6,-5 -11.7,-6.6 -3.1,-1.7 -6,-3.6 -6.3,-4.2 -0.4,-0.6 -3.3,-2.7 -6.3,-4.7 -3.1,-1.9 -6.6,-4.4 -7.7,-5.5 -1.1,-1 -3.7,-2.7 -5.7,-3.8 -2.1,-1.1 -3.8,-2.4 -3.8,-2.9 0,-0.6 -0.7,-1 -1.5,-1 -0.8,0 -1.5,-0.5 -1.5,-1.1 0,-0.5 -0.4,-0.7 -1,-0.4 -0.5,0.3 -1,0.1 -1,-0.5 0,-0.6 -0.4,-0.9 -0.8,-0.6 -0.4,0.2 -2.4,-0.5 -4.5,-1.7 -2,-1.2 -7.9,-4.8 -13.2,-7.9 -5.3,-3.2 -9.8,-5.8 -10,-5.8 -0.9,0 -16.1,-9.9 -18.3,-11.9 -1.2,-1.1 -2.5,-2 -2.8,-2 -1.3,0.2 -11.3,-8 -10.2,-8.3 0.8,-0.3 0.5,-1 -0.8,-2.2 -3.6,-3.2 -9.9,-7.8 -14.4,-10.4 -2.5,-1.4 -6.1,-3.8 -8.1,-5.3 -1.9,-1.5 -4.2,-2.9 -5,-3.1 -0.8,-0.2 -2,-1.1 -2.7,-2 -1.7,-2.3 -15.3,-10.3 -17,-10 -0.7,0.2 -1.5,-0.4 -1.8,-1.2 -0.3,-0.9 -1,-1.4 -1.4,-1.1 -0.5,0.3 -2.6,-0.5 -4.6,-1.7 -2.1,-1.3 -4.3,-2.3 -4.9,-2.4 -0.5,0 -1.6,-0.2 -2.3,-0.2 -0.7,-0.1 -1.1,-0.6 -0.7,-1.1 0.4,-0.8 -2.5,-3.2 -4.5,-3.6 -2.2,-0.6 -5.9,-2.7 -8,-4.7 -1.4,-1.3 -7.2,-5.3 -12.9,-8.9 -5.7,-3.5 -10.6,-7.1 -10.8,-7.9 -0.2,-0.9 -3.1,-3.3 -6.5,-5.4 -3.3,-2 -5.7,-4 -5.4,-4.3 0.3,-0.3 1.2,0 2,0.6 0.8,0.7 2.1,0.9 2.7,0.5 0.8,-0.4 0.9,-0.3 0.5,0.4 -0.4,0.7 -0.4,1.2 0.1,1.3 2.8,0.2 4.6,1 7.3,2.9 1.7,1.2 3.7,2 4.4,1.7 0.8,-0.3 3.1,0.9 5.3,2.8 2.1,1.8 4.5,3.4 5.4,3.6 2.8,0.7 20.7,13.4 20.2,14.3 -0.4,0.5 -0.2,0.7 0.3,0.4 1,-0.6 4,1.3 12.5,7.8 3,2.3 7.7,5.4 10.4,6.9 2.8,1.5 6.4,3.7 8,5 1.7,1.2 4.1,2.1 5.5,2 1.4,-0.2 3.5,0.4 4.8,1.2 8.8,5.5 12.4,7.3 11.9,5.9 -1,-2.6 0.9,-2.6 3.4,0 1.2,1.3 2.8,2.3 3.4,2 0.6,-0.2 4,1.3 7.5,3.5 3.5,2.1 6.7,3.6 7.2,3.3 0.4,-0.3 0.8,0 0.8,0.6 0,0.6 0.4,0.9 0.9,0.5 0.5,-0.3 1.2,-0.1 1.6,0.5 0.3,0.5 1.6,0.8 2.8,0.6 1.2,-0.2 3,0 3.9,0.5 1,0.6 1.9,0.5 2.3,-0.1 0.3,-0.5 -0.5,-1.5 -1.9,-2.2 -1.4,-0.6 -2.6,-1.5 -2.6,-2 0,-1.2 6,2 9.2,4.9 1.4,1.4 3.1,2.2 3.7,1.8 0.7,-0.3 3.6,0.7 6.5,2.4 4,2.2 5.6,2.7 6.5,1.8 0.8,-0.8 1.1,-0.8 1.1,0.3 0,0.7 0.3,1 0.7,0.7 0.3,-0.4 2.6,0.5 5,1.9 2.4,1.4 4.8,2.2 5.3,1.9 0.6,-0.4 0.9,-0.1 0.8,0.7 -0.2,0.7 0.4,1.3 1.2,1.3 1.9,0 15.1,6.9 20.7,10.6 2.3,1.6 4.6,2.9 5.2,2.9 0.6,0 1.1,0.4 1.1,0.9 0,0.8 6.5,5.3 8,5.6 0.3,0 2.4,1.3 4.7,2.8 2.4,1.5 4.5,2.7 4.8,2.7 0.9,0 8.8,5.4 10.8,7.3 1,1 2.2,1.5 2.7,1.2 0.5,-0.3 3.1,0.8 5.7,2.4 2.6,1.7 4.9,2.7 5.1,2.2 0.4,-1.1 5.3,-0.1 7.2,1.4 1.6,1.2 3.8,2.2 5.4,2.3 0.5,0 1.3,0.7 1.8,1.6 0.6,1 1.8,1.5 3.4,1.2 1.3,-0.3 2.4,0 2.4,0.6 0,0.7 0.5,0.6 1.4,-0.1 0.8,-0.7 1.7,-0.8 1.9,-0.4 0.9,1.4 -2.1,6.7 -6.1,10.9 -2,2.1 -6.6,7.2 -10.1,11.2 -3.5,3.9 -6.9,7.2 -7.5,7.2 -0.7,0 -1.8,-0.6 -2.6,-1.4 z"
           id="path29"
           style="fill:url(#linearGradient21);fill-opacity:1" />
      </g>
      <g
         fill="#656d86"
         id="g30"
         style="fill:url(#linearGradient24);fill-opacity:1">
        <path
           d="m 226,492 c -12.9,-1.8 -21.2,-3.4 -31,-5.9 -6.4,-1.7 -31,-10.1 -34,-11.6 -1.4,-0.7 -6.8,-3.4 -12,-5.9 -8.7,-4.2 -29.8,-16.7 -31,-18.5 -0.3,-0.4 -1.9,-1.6 -3.6,-2.6 C 104,441 75.5,412.7 64.6,398 56.6,387.2 47,372 47,370.1 c 0,-0.6 -0.4,-1.1 -0.9,-1.1 -0.5,0 -1.4,-1.4 -2,-3 -0.9,-2.8 -0.8,-3.2 1.7,-4.2 16.6,-6.5 27.7,-14.3 46.6,-32.7 19.1,-18.4 40.6,-47.5 50.1,-67.4 1.5,-3.2 3,-5.7 3.3,-5.5 0.4,0.2 2.5,1.6 4.7,3.1 11.6,8.2 30.5,19.4 30.5,18.1 0,-0.4 1.6,0.9 3.5,2.9 2,2.1 4.1,3.7 4.7,3.7 0.7,0 0.7,0.4 0,1.3 -1.9,2.2 3.3,6.4 22.7,18.5 2.4,1.5 5.1,3.5 5.9,4.4 0.9,0.9 1.9,1.5 2.4,1.2 0.4,-0.3 0.8,0 0.8,0.6 0,0.6 0.5,0.8 1,0.5 0.6,-0.3 1,-0.1 1,0.5 0,0.6 0.5,0.8 1.2,0.4 0.7,-0.4 0.8,-0.3 0.4,0.5 -0.4,0.6 0,1.4 1.1,1.8 1,0.4 2,0.9 2.3,1.3 0.3,0.4 7.9,5.1 17,10.5 9.1,5.4 17.4,10.7 18.6,11.7 2.2,2 3.9,2.4 2.8,0.7 -0.8,-1.4 6.4,3.2 15.1,9.6 3.9,2.8 7.7,5.4 8.5,5.8 0.8,0.4 3.3,2.1 5.5,3.8 2.2,1.6 6,4.3 8.4,5.9 2.4,1.6 6,4.4 8,6.2 7.7,7 13.8,11.7 17.6,13.5 2.2,1 4.6,2.6 5.3,3.6 0.7,0.9 1.9,1.7 2.5,1.7 0.7,0 3.6,1.6 6.6,3.5 2.9,1.9 5.5,3.5 5.8,3.5 0.3,0 2.8,1.6 5.5,3.6 2.8,1.9 6.1,3.7 7.4,3.8 1.3,0.2 3.2,0.9 4.1,1.8 1,0.8 5.1,3.7 9.1,6.4 13.1,8.7 23.4,16.8 22.6,17.7 -0.7,0.7 9.1,7.7 10.7,7.7 1.6,0 -2.6,3.9 -9.1,8.3 -2.5,1.7 -4.7,3.4 -5,3.7 -0.3,0.4 -2.3,1.9 -4.5,3.3 -2.2,1.5 -5.6,3.8 -7.5,5.1 -1.9,1.4 -4.1,2.5 -4.7,2.5 -0.7,0.1 -1.3,0.5 -1.3,1 0,0.5 -1.2,1.4 -2.7,2 -1.6,0.6 -6.1,2.9 -10,5 -11.9,6.3 -29.3,13.3 -43.8,17.6 C 291.8,493 254.3,496 226,492 Z"
           id="path30"
           style="fill:url(#linearGradient23);fill-opacity:1" />
      </g>
      <g
         fill="#427c9a"
         id="g31"
         style="fill:url(#linearGradient26);fill-opacity:1">
        <path
           d="m 419,423.6 c -0.8,-0.7 -4,-2.7 -7,-4.3 -3,-1.7 -8.2,-4.7 -11.5,-6.6 -3.3,-2 -8.6,-5 -11.7,-6.6 -3.1,-1.7 -6,-3.6 -6.3,-4.2 -0.4,-0.6 -3.3,-2.7 -6.3,-4.7 -3.1,-1.9 -6.6,-4.4 -7.7,-5.5 -1.1,-1 -3.7,-2.7 -5.7,-3.8 -2.1,-1.1 -3.8,-2.4 -3.8,-2.9 0,-0.6 -0.7,-1 -1.5,-1 -0.8,0 -1.5,-0.5 -1.5,-1.1 0,-0.5 -0.4,-0.7 -1,-0.4 -0.5,0.3 -1,0.1 -1,-0.5 0,-0.6 -0.4,-0.9 -0.8,-0.6 -0.4,0.2 -2.4,-0.5 -4.5,-1.7 -2,-1.2 -7.9,-4.8 -13.2,-7.9 -5.3,-3.2 -9.8,-5.8 -10,-5.8 -0.9,0 -16.1,-9.9 -18.3,-11.9 -1.2,-1.1 -2.5,-2 -2.8,-2 -1.3,0.2 -11.3,-8 -10.2,-8.3 0.8,-0.3 0.5,-1 -0.8,-2.2 -3.6,-3.2 -9.9,-7.8 -14.4,-10.4 -2.5,-1.4 -6.1,-3.8 -8.1,-5.3 -1.9,-1.5 -4.2,-2.9 -5,-3.1 -0.8,-0.2 -2,-1.1 -2.7,-2 -1.7,-2.3 -15.3,-10.3 -17,-10 -0.7,0.2 -1.5,-0.4 -1.8,-1.2 -0.3,-0.9 -1,-1.4 -1.4,-1.1 -0.5,0.3 -2.6,-0.5 -4.6,-1.7 -2.1,-1.3 -4.3,-2.3 -4.9,-2.4 -0.5,0 -1.6,-0.2 -2.3,-0.2 -0.7,-0.1 -1.1,-0.6 -0.7,-1.1 0.4,-0.8 -2.5,-3.2 -4.5,-3.6 -2.2,-0.6 -5.9,-2.7 -8,-4.7 -1.4,-1.3 -7.2,-5.3 -12.9,-8.9 -5.7,-3.5 -10.6,-7.1 -10.8,-7.9 -0.2,-0.9 -3.1,-3.3 -6.5,-5.4 -3.3,-2 -5.7,-4 -5.4,-4.3 0.3,-0.3 1.2,0 2,0.6 0.8,0.7 2.1,0.9 2.7,0.5 0.8,-0.4 0.9,-0.3 0.5,0.4 -0.4,0.7 -0.4,1.2 0.1,1.3 2.8,0.2 4.6,1 7.3,2.9 1.7,1.2 3.7,2 4.4,1.7 0.8,-0.3 3.1,0.9 5.3,2.8 2.1,1.8 4.5,3.4 5.4,3.6 2.6,0.7 20.8,13.3 20.2,14.2 -0.2,0.4 -0.1,0.6 0.4,0.5 1.3,-0.4 5,2 11.3,7 3.2,2.6 7.6,5.6 9.7,6.7 2.1,1 5.8,3.3 8.3,5 2.5,1.6 5.7,3 7.1,3 2.8,0 15.9,7.1 15.9,8.6 0,0.5 0.4,0.9 1,0.9 0.9,0 4.9,2.5 12.5,7.7 3.8,2.6 5.9,3.8 15.4,8.9 2.4,1.3 6.5,3.8 9.2,5.5 2.7,1.7 5.4,2.7 6,2.3 0.8,-0.4 0.9,-0.3 0.5,0.4 -0.6,1.1 0.6,1.6 2.7,1.3 0.4,0 0.7,0.4 0.7,0.9 0,0.5 0.3,0.9 0.8,0.8 0.9,-0.3 6.6,2.8 11.7,6.2 2.8,1.9 4.6,2.5 5.6,2 1,-0.6 2.5,-0.2 4.5,1.1 1.6,1.1 5.8,3.5 9.4,5.3 3.6,1.9 7.4,4.3 8.4,5.5 1.1,1.2 2.4,2.1 3.1,2.1 0.7,0 2,0.9 3,2 1,1.1 2.4,2 3,2 0.7,0 3,1.6 5.1,3.6 6.1,5.6 9.9,8.4 11.7,8.4 1,0 1.7,0.5 1.7,1 0,0.6 0.5,1 1,1 0.6,0 2.3,0.9 3.8,2 1.5,1.1 4.1,2.1 5.7,2.3 3.6,0.4 9.7,3.4 10.8,5.4 0.7,1.2 1.1,1.2 2.5,0.1 1.3,-1.1 1.5,-1.1 0.9,0.4 -0.8,2.2 0.9,3.3 2.8,1.8 1.1,-0.9 1.8,-0.7 3.2,0.7 1.1,1.1 2.5,1.7 3.1,1.5 2.5,-0.8 1,1.9 -4.4,8.2 -5.7,6.9 -7,7.5 -9.4,5.2 z"
           id="path31"
           style="fill:url(#linearGradient25);fill-opacity:1" />
      </g>
      <g
         fill="#70627f"
         id="g32"
         style="fill:url(#linearGradient28);fill-opacity:1">
        <path
           d="m 226,492 c -12.9,-1.8 -21.2,-3.4 -31,-5.9 -6.4,-1.7 -31,-10.1 -34,-11.6 -1.4,-0.7 -6.8,-3.4 -12,-5.9 -8.7,-4.2 -29.8,-16.7 -31,-18.5 -0.3,-0.4 -1.9,-1.6 -3.6,-2.6 C 104,441 75.5,412.7 64.6,398 56.6,387.2 47,372 47,370.1 c 0,-0.6 -0.4,-1.1 -0.9,-1.1 -0.5,0 -1.4,-1.4 -2,-3 -0.9,-2.8 -0.8,-3.2 1.7,-4.2 5.5,-2.1 15.8,-7.4 20.2,-10.2 15.6,-10.2 37.2,-31.8 53.5,-53.5 9,-12 21.5,-31.8 21.5,-34.1 0,-0.9 1,-0.4 2.8,1.2 1.5,1.4 4.1,3.4 5.7,4.4 1.7,1 4.4,3.2 6,4.8 1.7,1.6 5.5,4.8 8.5,7 3,2.3 8.8,6.7 12.8,9.9 8.4,6.8 18.6,13.8 23.3,16.3 1.9,0.9 8.5,5.1 14.7,9.3 6.2,4.2 14.7,9.9 19,12.7 4.2,2.9 9.3,6.6 11.3,8.3 2,1.7 5.8,4.3 8.5,5.8 2.7,1.4 6.5,3.9 8.5,5.5 2,1.5 3.9,2.8 4.2,2.8 1.3,0 13.6,7.7 16.9,10.7 2,1.7 5.6,4.4 8,5.9 2.4,1.6 5.8,4.1 7.6,5.8 1.7,1.6 3.2,2.6 3.2,2.2 0,-0.4 1.4,0.6 3.1,2.3 1.7,1.7 3.5,2.9 3.9,2.6 0.5,-0.3 1.3,0.3 1.9,1.3 0.5,1 5.7,4.6 11.5,8.1 5.7,3.4 11,6.9 11.7,7.7 1.6,1.9 5.9,4.2 9,4.8 3.3,0.6 8.6,3.3 13.4,6.8 5.8,4.1 16,11.6 22.4,16.5 3.1,2.3 6,4.2 6.4,4.3 1,0 9,6.3 13,10.2 2.6,2.6 2.7,2.7 0.8,3.7 -1.1,0.6 -2.6,1.7 -3.3,2.4 -0.7,0.8 -3.1,2.6 -5.3,4 -2.2,1.5 -5.6,3.8 -7.5,5.1 -1.9,1.4 -4.1,2.5 -4.7,2.5 -0.7,0.1 -1.3,0.5 -1.3,1 0,0.5 -1.2,1.4 -2.7,2 -1.6,0.6 -6.1,2.9 -10,5 -11.9,6.3 -29.3,13.3 -43.8,17.6 C 291.8,493 254.3,496 226,492 Z"
           id="path32"
           style="fill:url(#linearGradient27);fill-opacity:1" />
      </g>
      <g
         fill="#7b5b78"
         id="g33"
         style="fill:url(#linearGradient30);fill-opacity:1">
        <path
           d="m 226,492 c -12.9,-1.8 -21.2,-3.4 -31,-5.9 -6.4,-1.7 -31,-10.1 -34,-11.6 -1.4,-0.7 -6.8,-3.4 -12,-5.9 -8.7,-4.2 -29.8,-16.7 -31,-18.5 -0.3,-0.4 -1.9,-1.6 -3.6,-2.6 C 104,441 75.5,412.7 64.6,398 56.6,387.2 47,372 47,370.1 c 0,-0.6 -0.4,-1.1 -0.9,-1.1 -0.5,0 -1.4,-1.4 -2,-3 -0.9,-2.8 -0.8,-3.2 1.7,-4.2 16.6,-6.5 27.7,-14.3 46.6,-32.7 15.6,-15 28,-30.7 42.4,-53.6 1.8,-2.7 3.2,-4.3 3.2,-3.5 0,0.9 2.1,3.4 4.7,5.5 5.2,4.4 13.3,9.8 13.3,8.9 0,-0.3 1.2,0.8 2.6,2.5 1.4,1.7 3,3.1 3.6,3.1 0.6,0 3.3,1.6 5.9,3.5 2.7,1.9 5.2,3.5 5.5,3.5 0.3,0 3.1,1.8 6.1,4 3.1,2.2 6,3.7 6.5,3.4 0.9,-0.6 29.1,17.7 30.3,19.6 0.4,0.6 2.3,2.2 4.3,3.5 2.1,1.3 6.3,4.5 9.5,7 3.2,2.5 6.5,4.9 7.3,5.3 0.9,0.5 1.6,1.6 1.8,2.5 0.1,1 1.3,2.5 2.7,3.4 1.3,0.9 2.6,1.9 2.9,2.2 1.2,1.3 6.8,4.9 10.2,6.5 2.1,1 5,3 6.5,4.5 3,3 26.7,18.8 32.3,21.6 1.9,1 4.7,3.1 6.3,4.8 1.5,1.7 2.7,2.8 2.7,2.4 0,-0.3 1.1,0.5 2.5,1.9 1.4,1.4 4.2,3.2 6.1,4 2,0.9 6.1,3.3 9,5.5 2.9,2.1 5.7,3.9 6.2,3.9 0.5,0 1.8,0.8 3,1.8 1.1,0.9 3.1,2.6 4.4,3.7 1.2,1 4.1,2.9 6.3,4.1 7.4,3.9 8.8,4.8 15.4,10.2 3.6,2.8 6.9,5.2 7.4,5.2 0.5,0 2.2,0.9 3.8,2.1 2.2,1.6 2.7,2.4 1.9,3.4 -0.8,0.9 -0.2,1.9 2.2,3.9 8.8,7.2 12.5,10 14.6,10.9 1.2,0.6 2.2,1.3 2.2,1.7 0,1 -3,3.5 -7,5.6 -1.9,1 -3.7,2.2 -4,2.5 -0.6,0.7 -2.1,1.5 -14.3,7.6 -33.7,17 -66.3,25.1 -103.7,25.8 -15.2,0.3 -22.4,0 -33,-1.5 z"
           id="path33"
           style="fill:url(#linearGradient29);fill-opacity:1" />
      </g>
      <g
         fill="#8a526f"
         id="g34"
         style="fill:url(#linearGradient32);fill-opacity:1">
        <path
           d="m 226,492 c -12.9,-1.8 -21.2,-3.4 -31,-5.9 -6.4,-1.7 -31,-10.1 -34,-11.6 -1.4,-0.7 -6.8,-3.4 -12,-5.9 -8.7,-4.2 -29.8,-16.7 -31,-18.5 -0.3,-0.4 -1.9,-1.6 -3.6,-2.6 C 104,441 75.5,412.7 64.6,398 56.6,387.2 47,372 47,370.1 c 0,-0.6 -0.4,-1.1 -0.9,-1.1 -0.5,0 -1.4,-1.4 -2,-3 -0.9,-2.8 -0.8,-3.2 1.7,-4.2 5.5,-2.1 15.8,-7.4 20.2,-10.2 18.7,-12.2 44.9,-39.8 62,-65.4 1.9,-2.9 3.6,-4.6 3.8,-3.9 0.1,0.7 1.9,2.2 4,3.2 2,1.1 6,3.8 8.9,6 13.6,10.5 18.3,13.8 24.8,17.7 3.9,2.3 7.5,4.6 8.1,5.2 0.6,0.6 3.7,2.7 6.9,4.6 3.1,1.9 6.9,4.4 8.4,5.6 1.4,1.2 6.2,4 10.7,6.4 4.4,2.3 10.4,6.4 13.2,9 2.9,2.6 5.2,4.7 5.2,4.5 0,-0.2 2.1,1.7 4.8,4.1 2.6,2.4 6.2,5.6 7.9,7.1 1.8,1.6 4.1,3.5 5.2,4.4 1,1 5.8,4.2 10.5,7.3 4.7,3.1 8.8,6.2 9.2,6.7 0.6,1 23.2,16.4 29.2,20 1.5,0.8 4.7,3.4 7.2,5.8 2.5,2.3 6.1,5.1 8,6.1 3.5,1.8 6.6,4.6 7.2,6.5 0.2,0.5 0.9,0.8 1.7,0.7 0.7,-0.2 1,0.1 0.7,0.7 -0.3,0.5 1.6,2.4 4.3,4.2 2.8,1.7 5.2,3.8 5.5,4.5 0.3,0.8 1.2,1.4 1.9,1.4 0.8,0 2.7,1.1 4.3,2.5 3.7,3.2 17.8,12.6 22.4,15 1.9,1 4.8,2.8 6.3,4.1 1.6,1.3 3.3,2.4 3.9,2.4 0.6,0 3.1,1.5 5.7,3.4 2.5,1.8 6.4,4.3 8.6,5.5 2.2,1.1 3.2,2.1 2.2,2.1 -0.9,0 -1.7,0.4 -1.7,0.9 0,0.5 -1.2,1.4 -2.7,2 -1.6,0.6 -6.1,2.9 -10,5 -11.9,6.3 -29.3,13.3 -43.8,17.6 C 291.8,493 254.3,496 226,492 Z"
           id="path34"
           style="fill:url(#linearGradient31);fill-opacity:1" />
      </g>
      <g
         fill="#984866"
         id="g35"
         style="fill:url(#linearGradient34);fill-opacity:1">
        <path
           d="m 226,492 c -12.9,-1.8 -21.2,-3.4 -31,-5.9 -6.4,-1.7 -31,-10.1 -34,-11.6 -1.4,-0.7 -6.8,-3.4 -12,-5.9 -8.7,-4.2 -29.8,-16.7 -31,-18.5 -0.3,-0.4 -1.9,-1.6 -3.6,-2.6 C 104,441 75.5,412.7 64.6,398 56.6,387.2 47,372 47,370.1 c 0,-0.6 -0.4,-1.1 -0.9,-1.1 -0.5,0 -1.4,-1.4 -2,-3 -0.9,-2.8 -0.8,-3.2 1.7,-4.2 5.5,-2.1 15.8,-7.4 20.2,-10.2 17.7,-11.6 46,-41.1 60.7,-63.3 1,-1.6 1.2,-1.6 1.2,-0.2 0.1,2 15.2,13.6 23.5,18 2.2,1.2 4.6,2.8 5.4,3.5 0.7,0.8 1.7,1.4 2.2,1.4 0.7,0 6.4,4.4 13.5,10.3 0.6,0.4 2.2,1.6 3.7,2.5 1.4,0.9 5.4,3.8 8.7,6.5 3.4,2.6 6.3,4.7 6.5,4.7 0.2,0 3,2.4 6.1,5.4 3.1,3 5.9,5.5 6.3,5.5 0.4,0 0.8,0.5 1.1,1.2 0.2,0.7 -0.1,0.9 -0.9,0.4 -0.9,-0.6 -0.9,-0.3 -0.1,1.3 0.6,1.1 3.9,3.9 7.3,6.3 3.5,2.3 8,5.6 10,7.4 2,1.7 6.5,4.8 10,6.9 9.1,5.5 14.8,9.5 22.2,15.7 1.7,1.4 4.5,3.3 6.2,4.2 1.7,0.9 3.6,2.3 4.3,3.1 0.8,0.9 2,1.6 2.8,1.6 0.8,0 2.6,1.3 3.9,3 1.4,1.6 3.9,3.8 5.5,4.7 1.6,1 3.2,2.6 3.5,3.6 0.3,1 0.8,1.7 1,1.4 0.5,-0.5 8.9,7.4 8.9,8.4 0,0.9 5.3,5 15.5,12 4.1,2.9 9,6.5 10.8,8.1 5.3,4.5 47,31.4 48.3,31.1 2.6,-0.8 0.2,0.9 -4.7,3.2 -33.8,16 -64.5,23.3 -100.4,24 -15.2,0.3 -22.4,0 -33,-1.5 z"
           id="path35"
           style="fill:url(#linearGradient33);fill-opacity:1" />
      </g>
      <g
         fill="#a93e5c"
         id="g36"
         style="fill:url(#linearGradient36);fill-opacity:1">
        <path
           d="m 226,492 c -12.9,-1.8 -21.2,-3.4 -31,-5.9 -6.4,-1.7 -31,-10.1 -34,-11.6 -1.4,-0.7 -6.8,-3.4 -12,-5.9 -8.7,-4.2 -29.8,-16.7 -31,-18.5 -0.3,-0.4 -1.9,-1.6 -3.6,-2.6 C 104,441 75.5,412.7 64.6,398 56.6,387.2 47,372 47,370.1 c 0,-0.6 -0.4,-1.1 -0.9,-1.1 -0.5,0 -1.4,-1.4 -2,-3 -0.9,-2.8 -0.8,-3.2 1.7,-4.2 5.5,-2.1 15.8,-7.4 20.2,-10.2 10.3,-6.7 32,-26.7 40.8,-37.6 12.7,-15.6 12.1,-15 14.7,-12.6 1.2,1.1 4.6,3.7 7.5,5.6 2.8,1.9 6.9,4.9 9.1,6.5 2.1,1.7 5.7,4.4 7.9,6 2.3,1.7 5.5,4.2 7.3,5.6 1.8,1.5 5.7,4.1 8.7,6 3,1.8 6.9,4.4 8.6,5.8 3.9,3.3 18.7,12.6 19.5,12.4 0.4,-0.1 2.1,1.6 3.9,3.8 1.7,2.2 3.4,3.8 3.7,3.5 0.5,-0.5 0.9,-0.2 5.7,4 1.6,1.4 4.6,3.7 6.7,5.1 2.2,1.4 3.9,3 3.9,3.4 0,0.5 0.6,0.9 1.3,0.9 0.6,0 2.3,1.6 3.7,3.4 1.4,1.9 2.8,3.2 3.1,3.1 0.3,-0.2 1.3,0.9 2.3,2.6 0.9,1.6 2,2.7 2.4,2.5 0.8,-0.5 3.3,2 3.1,3.1 -0.2,0.8 5.6,5.4 11.6,9.3 4.9,3.2 13.5,9.3 17.9,12.7 2.3,1.8 7.3,5.5 11.1,8.2 11,7.9 15.8,11.5 17.7,13.4 1,0.9 2.2,1.7 2.7,1.7 0.5,0 3.1,1.8 5.7,4 2.7,2.2 5.3,3.9 5.9,3.8 1.5,-0.3 11.6,6.7 10.8,7.5 -0.3,0.4 -0.1,0.7 0.6,0.7 1.3,0 2.8,1.1 7.7,5.6 1.8,1.7 3.6,2.9 3.9,2.6 0.3,-0.3 0.5,0 0.5,0.7 0,0.7 0.4,1 0.9,0.6 0.6,-0.3 1.5,0.3 2.1,1.4 0.5,1.1 4.1,4.2 7.8,6.8 3.7,2.6 7.3,5.3 8,6 0.7,0.7 2.9,1.5 5,1.9 3.7,0.7 3.7,0.7 -0.8,2.6 -6.4,2.8 -21.5,8.2 -28.5,10.3 C 292,493 254.3,496 226,492 Z"
           id="path36"
           style="fill:url(#linearGradient35);fill-opacity:1" />
      </g>
      <g
         fill="#bb3351"
         id="g37"
         style="fill:url(#linearGradient38);fill-opacity:1">
        <path
           d="m 226,492 c -12.9,-1.8 -21.2,-3.4 -31,-5.9 -6.4,-1.7 -31,-10.1 -34,-11.6 -1.4,-0.7 -6.8,-3.4 -12,-5.9 -8.7,-4.2 -29.8,-16.7 -31,-18.5 -0.3,-0.4 -1.9,-1.6 -3.6,-2.6 C 104,441 75.5,412.7 64.6,398 56.6,387.2 47,372 47,370.1 c 0,-0.6 -0.4,-1.1 -0.9,-1.1 -0.5,0 -1.4,-1.4 -2,-3 -0.9,-2.8 -0.8,-3.2 1.7,-4.2 5.5,-2.1 15.8,-7.4 20.2,-10.2 10.1,-6.6 31.9,-26.6 40.6,-37.3 3.7,-4.5 4.4,-5 4.9,-3.3 0.3,1.1 4.1,4.4 8.3,7.5 4.2,3 8.8,6.4 10.2,7.6 2.4,2 21.4,16.4 27,20.4 8.7,6.3 14,10.7 14,11.6 0,0.6 0.4,0.8 0.8,0.5 1.2,-0.7 5.4,2.3 4.7,3.4 -0.7,1.1 3.2,5.7 7,8.3 6.9,4.7 17.1,12.4 21,15.7 2.2,2 5.8,4.8 8,6.3 2.2,1.5 5.4,3.9 7,5.5 1.7,1.5 3.9,3.1 4.9,3.5 1,0.4 1.6,1 1.3,1.4 -0.4,0.3 1.6,2.2 4.3,4.2 11.6,8.5 20.1,15.3 21,17.1 0.7,1.3 1.6,1.7 2.8,1.3 0.9,-0.3 1.4,-0.3 1,0.2 -0.4,0.4 0.7,1.9 2.4,3.2 5.8,4.2 9,6.7 17.2,13.2 10.8,8.4 14.6,11.3 17.6,13.3 1.4,0.9 4.2,3.2 6.3,5.2 2,1.9 3.7,3.3 3.7,3.2 0,-0.2 1.7,1.2 3.7,3 2,1.9 4.3,3.4 5,3.4 0.7,0 1.3,0.7 1.3,1.5 0,0.8 0.6,1.5 1.3,1.5 0.8,0 2.4,1.1 3.7,2.5 1.3,1.4 4.4,3.5 6.9,4.7 3.5,1.7 4.1,2.3 2.6,2.6 -1.1,0.2 -4.2,1 -6.8,1.9 -5.9,1.9 -14.7,3.8 -29.7,6.4 -16.9,3 -46.1,3.4 -64,0.9 z"
           id="path37"
           style="fill:url(#linearGradient37);fill-opacity:1" />
      </g>
      <g
         fill="#ca2a49"
         id="g38"
         style="fill:url(#linearGradient40);fill-opacity:1">
        <path
           d="m 226,492 c -12.9,-1.8 -21.2,-3.4 -31,-5.9 -6.4,-1.7 -31,-10.1 -34,-11.6 -1.4,-0.7 -6.8,-3.4 -12,-5.9 -8.7,-4.2 -29.8,-16.7 -31,-18.5 -0.3,-0.4 -1.9,-1.6 -3.6,-2.6 C 104,441 75.5,412.7 64.6,398 56.6,387.2 47,372 47,370.1 c 0,-0.6 -0.4,-1.1 -0.9,-1.1 -0.5,0 -1.4,-1.4 -2,-3 -0.9,-2.8 -0.8,-3.2 1.7,-4.2 16.5,-6.5 28.1,-14.6 45.8,-31.9 8.1,-7.9 11.7,-10.8 10,-8 -0.3,0.5 3,3.5 7.4,6.8 4.4,3.2 12.9,9.6 18.8,14.3 5.9,4.7 13.4,10.5 16.7,13 3.3,2.4 8.3,6.3 11,8.5 2.8,2.3 6,4.8 7.1,5.6 4.7,3.1 16,11.7 22.6,17.2 3.8,3.1 7.3,5.7 7.7,5.7 0.3,0 1.7,1 3.1,2.3 4.1,3.7 12.2,10 16.1,12.7 2.1,1.4 5.3,3.9 7.2,5.7 1.9,1.7 3.8,2.9 4.1,2.6 0.3,-0.3 0.8,0.2 1.2,1.1 0.3,0.9 1.2,1.6 2,1.6 0.7,0 2.1,1.1 3,2.5 0.9,1.4 2.1,2.5 2.6,2.5 0.6,0 2.7,1.5 4.8,3.3 3.4,2.9 14.5,11.3 30.8,23.4 3.1,2.3 6.4,4.8 7.2,5.6 0.8,0.7 6,4.7 11.5,8.7 5.5,4.1 13.1,10.1 16.9,13.2 3.8,3.2 7.7,5.8 8.8,5.8 1,0 1.8,0.6 1.8,1.3 0,1.3 -3.8,2.2 -24.5,5.9 -16.3,2.9 -45.8,3.3 -63.5,0.8 z"
           id="path38"
           style="fill:url(#linearGradient39);fill-opacity:1" />
      </g>
      <g
         fill="#d82240"
         id="g39"
         style="fill:url(#linearGradient42);fill-opacity:1">
        <path
           d="m 226,492 c -12.9,-1.8 -21.2,-3.4 -31,-5.9 -6.4,-1.7 -31,-10.1 -34,-11.6 -1.4,-0.7 -6.8,-3.4 -12,-5.9 -8.7,-4.2 -29.8,-16.7 -31,-18.5 -0.3,-0.4 -1.9,-1.6 -3.6,-2.6 C 104,441 75.5,412.7 64.6,398 56.6,387.2 47,372 47,370.1 c 0,-0.6 -0.4,-1.1 -0.9,-1.1 -0.5,0 -1.4,-1.4 -2,-3 -0.9,-2.8 -0.8,-3.2 1.7,-4.2 5.5,-2.1 15.8,-7.4 20.2,-10.2 5.5,-3.6 18.4,-14.2 22.4,-18.5 2.8,-2.9 5.5,-4.3 4.1,-2.1 -0.3,0.6 -0.2,1 0.3,1 0.5,0 3.3,1.9 6.4,4.3 7,5.4 9.3,7.1 20.8,15.6 5.2,3.9 10.2,7.6 11,8.3 2.4,2 10,8 13.1,10.2 6,4.5 26.4,20.1 26.9,20.6 0.3,0.4 2.5,2 5,3.8 2.5,1.7 6.2,4.6 8.2,6.5 2,1.9 3.9,3.2 4.2,3 0.3,-0.3 0.8,0.2 1.2,1.1 0.3,0.9 1,1.4 1.4,1.1 0.5,-0.3 1.9,0.8 3.2,2.4 2,2.7 8.4,7.7 27.7,22.3 3,2.3 6.2,4.7 7,5.4 6,4.8 11.2,8.7 14.6,11 2.2,1.5 4.2,3 4.5,3.4 0.3,0.3 2.3,1.9 4.5,3.5 2.2,1.7 4.4,3.6 4.8,4.2 0.4,0.7 1.2,1.3 1.7,1.3 1.1,0 6.7,4.2 17.5,13 4.1,3.3 7.6,6 7.9,6 1,0 9.6,6.4 9.6,7.1 0,0.4 1.4,1 3,1.4 1.7,0.4 3,1 3,1.3 0,0.4 -5.3,1.6 -11.7,2.6 -17.1,2.8 -44.8,3 -62.3,0.6 z"
           id="path39"
           style="fill:url(#linearGradient41);fill-opacity:1" />
      </g>
    </g>
    <path
       style="fill:#ffff00"
       d="M 97.230769,324.92308 390.15385,450.46154"
       id="path43" />
    <path
       style="fill:#ffff00"
       d="M 481.23077,253.53846 41.230769,428.30769"
       id="path44" />
    <path
       style="fill:#ffff00"
       d="m 108.30769,311.38462 c 0,0 -279.38461,-72 0,0 z"
       id="path45" />
    <path
       style="fill:#ffff00"
       d="m 106.46154,313.84615 334.76923,88.61539"
       id="path46" />
    <path
       style="fill:#ffff00"
       d="M 176,372.30769 106.46154,315.07692"
       id="path47" />
    <path
       style="fill:#b3b3b3;stroke:#b3b3b3;stroke-width:0.615385"
       d="m 248.05363,125.22384 c -3.60417,-1.37872 -8.89234,-5.7298 -11.19781,-9.21348 -2.72522,-4.11794 -4.19204,-9.97629 -3.69309,-14.74993 0.79363,-7.593076 6.20001,-15.190672 13.27529,-18.655807 3.01243,-1.47535 4.12372,-1.669864 9.57144,-1.675345 5.73698,-0.0058 6.44943,0.134535 10.2996,2.028375 3.363,1.654205 4.76129,2.833355 7.47937,6.307183 4.36421,5.577641 5.51849,9.062594 5.15924,15.576444 -0.33306,6.03884 -2.13982,10.03522 -6.73219,14.89098 -4.2877,4.53361 -7.83626,5.9453 -15.6001,6.20603 -4.40702,0.148 -6.83735,-0.0548 -8.56175,-0.71445 z"
       id="path56" />
  </g>
  <g
     id="meteors_outer"
     transform="matrix(2.0694362,0,0,2.0694362,-24.030203,-47.285208)">
    <title
       id="title77">meteors</title>
    <g
       fill="#f7e264"
       id="g3">
      <path
         d="M 118,225.8 C 106.7,224 103.1,221.5 80.3,198.7 68.6,187.1 59,177.3 59,176.9 c 0,-0.4 1.1,-1 2.5,-1.3 1.4,-0.4 3.1,-1.8 3.7,-3.1 1.1,-2.4 0.6,-3.1 -7.1,-11 -4.6,-4.6 -8,-8.9 -7.6,-9.5 0.3,-0.5 2.5,-1 4.9,-1 4.5,0 6.6,-1.3 6.6,-4.3 0,-1 -5.4,-11.5 -12.1,-23.3 -6.6,-11.8 -11.8,-22.1 -11.5,-22.9 0.3,-1 6.3,1.9 22.5,11.1 12.1,6.8 22.9,12.4 23.9,12.4 2.9,0 4.2,-2.1 4.2,-6.6 0,-2.4 0.5,-4.6 1,-4.9 0.6,-0.4 4.9,3 9.5,7.6 7.9,7.7 8.6,8.2 11,7.1 1.3,-0.6 2.7,-2.3 3.1,-3.7 0.3,-1.4 0.9,-2.5 1.3,-2.5 0.4,0 10.2,9.6 21.8,21.3 13,13.1 21.9,22.9 23.3,25.6 14.7,29.3 -9.6,62.9 -42,57.9 z m 37.9,-39.4 C 155.9,169.1 141.8,155 124.4,155 107,155 93,169.1 93,186.4 c 0,17.4 14,31.5 31.4,31.5 17.4,0 31.5,-14.1 31.5,-31.5 z m -17.5,28.2"
         id="path1" />
      <path
         d="m 250,131.6 c -7.9,-1.7 -10.8,-3.8 -27,-20 C 208.7,97.2 208.6,97 210.8,95.4 c 3.4,-2.3 2.7,-4.5 -3.3,-10.4 -3,-3 -5.5,-5.8 -5.5,-6.2 0,-0.4 1.6,-0.8 3.5,-0.8 2.4,0 3.7,-0.6 4.5,-2 0.9,-1.7 -0.4,-4.6 -8,-18.2 -5,-8.8 -8.9,-16.5 -8.8,-17 0.2,-0.4 7.5,3.2 16.3,8.2 8.8,4.9 16.8,9 17.7,9 2,0 3.8,-2.9 3.8,-5.9 0,-1.2 0.3,-2.1 0.7,-2.1 0.4,0 3.3,2.5 6.4,5.6 6,5.9 8.5,6.5 9.6,2.4 0.3,-1.1 0.8,-2 1.2,-2 1.6,0 31.1,31 32.9,34.5 3.4,7.1 4.3,12.5 2.8,18 -3.4,12.9 -11.4,21.2 -22.1,23 -2.2,0.4 -4.7,0.8 -5.5,1 -0.8,0.2 -4,-0.2 -7,-0.9 z m 29.6,-28.1 c 0,-12.9 -10.5,-23.4 -23.4,-23.4 -13,0 -23.5,10.5 -23.5,23.4 0,13 10.5,23.5 23.5,23.5 12.9,0 23.4,-10.5 23.4,-23.5 z m -12.8,21.1"
         id="path2" />
      <path
         d="m 155.5,110.1 c -5.4,-1.3 -7.9,-3.2 -18.7,-13.9 -10.6,-10.5 -10.6,-10.5 -8.5,-12.3 2.2,-1.8 2.2,-1.8 -2,-6.1 -2.4,-2.4 -4.3,-4.7 -4.3,-5.1 0,-0.4 1.1,-0.7 2.5,-0.7 1.4,0 2.8,-0.7 3.1,-1.5 0.3,-0.8 -2.4,-6.6 -6.1,-13.1 -3.6,-6.4 -6.5,-11.7 -6.3,-11.9 0.2,-0.2 5.5,2.6 11.8,6.1 6.2,3.6 12.1,6.3 12.9,6.2 0.9,-0.2 1.8,-1.6 2.1,-3.1 0.5,-2.8 0.5,-2.8 4.5,1.2 4.3,4.5 5.1,4.8 7.5,2.6 1.5,-1.3 2.7,-0.4 13.2,10.3 10.5,10.6 11.7,12.2 12.6,16.7 1.5,7.2 -0.8,15.5 -5.4,19.6 -4.8,4.2 -13.2,6.4 -18.9,5 z m 21.4,-19.9 c 0,-9.3 -7.5,-16.9 -16.8,-16.9 -9.4,0 -16.9,7.6 -16.9,16.9 0,9.3 7.5,16.9 16.9,16.9 9.3,0 16.8,-7.6 16.8,-16.9 z m -7.1,13.9"
         id="path3" />
    </g>
    <g
       id="g76">
      <g
         fill="#f1cf32"
         id="g7">
        <path
           d="M 118,225.8 C 106.7,224 103.1,221.5 80.3,198.7 68.6,187.1 59,177.3 59,176.9 c 0,-0.4 1.1,-1 2.5,-1.3 1.4,-0.4 3.1,-1.8 3.7,-3.1 1.1,-2.4 0.6,-3.1 -7.1,-11 -4.6,-4.6 -8,-8.9 -7.6,-9.5 0.3,-0.5 2.5,-1 4.9,-1 4.5,0 6.6,-1.3 6.6,-4.3 0,-1 -5.4,-11.5 -12.1,-23.3 -6.6,-11.8 -11.8,-22.1 -11.5,-22.9 0.3,-1 6.3,1.9 22.5,11.1 12.1,6.8 22.9,12.4 23.9,12.4 2.9,0 4.2,-2.1 4.2,-6.6 0,-2.4 0.5,-4.6 1,-4.9 0.6,-0.4 4.9,3 9.5,7.6 7.9,7.7 8.6,8.2 11,7.1 1.3,-0.6 2.7,-2.3 3.1,-3.7 0.3,-1.4 0.9,-2.5 1.3,-2.5 0.4,0 10.2,9.6 21.8,21.3 13,13.1 21.9,22.9 23.3,25.6 14.7,29.3 -9.6,62.9 -42,57.9 z m 37.9,-39.4 C 155.9,169.1 141.8,155 124.4,155 107,155 93,169.1 93,186.4 c 0,17.4 14,31.5 31.4,31.5 17.4,0 31.5,-14.1 31.5,-31.5 z m -17.5,28.2 M 85.7,185.2 c 0.1,-3.7 1,-8.9 2,-11.6 1.8,-4.9 1.8,-4.9 -2.5,-9.2 -4.1,-4 -4.8,-6.4 -1.8,-6.4 0.6,0 2.7,1.5 4.5,3.4 3.3,3.4 3.3,3.4 9.1,-2.2 5.7,-5.7 5.7,-5.7 2.2,-9.4 -2.2,-2.4 -3.2,-4.2 -2.8,-5.3 0.8,-2.1 3.6,-0.6 7.2,3.9 2.7,3.3 2.7,3.3 7.8,1.4 3.2,-1.3 7.8,-2.1 12.3,-2.1 7.3,-0.1 7.3,-0.1 3.6,-3.9 -2,-2.1 -4,-3.8 -4.4,-3.8 -0.5,0 -1.4,1.2 -2.1,2.8 -0.9,1.8 -2.2,2.8 -4.1,3 -2.3,0.3 -4.1,-0.9 -10.6,-7.2 -4.2,-4.2 -8,-7.6 -8.4,-7.6 -0.4,0 -0.7,0.8 -0.7,1.8 0,2.5 -2,4.2 -4.8,4.2 -1.3,0 -9.2,-3.8 -17.4,-8.5 -15,-8.4 -16.8,-9.3 -16.8,-7.6 0,0.4 3.8,7.6 8.5,15.8 4.7,8.3 8.5,16.1 8.5,17.5 0,2.8 -1.7,4.8 -4.2,4.8 -1,0 -1.8,0.3 -1.8,0.7 0,0.4 3.4,4.2 7.6,8.4 6.2,6.5 7.5,8.3 7.2,10.6 -0.2,1.7 -1.2,3.2 -2.6,3.9 -1.2,0.6 -2.5,1.4 -2.9,1.8 -0.6,0.6 5.5,7.6 6.6,7.6 0.4,0 0.7,-3.1 0.8,-6.8 z"
           id="path5" />
        <path
           d="m 250,131.6 c -7.9,-1.7 -10.8,-3.8 -27,-20 C 208.7,97.2 208.6,97 210.8,95.4 c 3.4,-2.3 2.7,-4.5 -3.3,-10.4 -3,-3 -5.5,-5.8 -5.5,-6.2 0,-0.4 1.6,-0.8 3.5,-0.8 2.4,0 3.7,-0.6 4.5,-2 0.9,-1.7 -0.4,-4.6 -8,-18.2 -5,-8.8 -8.9,-16.5 -8.8,-17 0.2,-0.4 7.5,3.2 16.3,8.2 8.8,4.9 16.8,9 17.7,9 2,0 3.8,-2.9 3.8,-5.9 0,-1.2 0.3,-2.1 0.7,-2.1 0.4,0 3.3,2.5 6.4,5.6 6,5.9 8.5,6.5 9.6,2.4 0.3,-1.1 0.8,-2 1.2,-2 1.6,0 31.1,31 32.9,34.5 3.4,7.1 4.3,12.5 2.8,18 -3.4,12.9 -11.4,21.2 -22.1,23 -2.2,0.4 -4.7,0.8 -5.5,1 -0.8,0.2 -4,-0.2 -7,-0.9 z m 29.6,-28.1 c 0,-12.9 -10.5,-23.4 -23.4,-23.4 -13,0 -23.5,10.5 -23.5,23.4 0,13 10.5,23.5 23.5,23.5 12.9,0 23.4,-10.5 23.4,-23.5 z m -12.8,21.1 M 229.1,93.8 c 1.1,-3.6 1.1,-3.9 -1.4,-5.9 C 225.1,86 224,83 225.8,83 c 0.5,0 1.7,0.9 2.7,2 2.5,2.7 3.1,2.6 7.7,-2 4.1,-4 4.1,-4 2,-6.3 -2.6,-2.7 -2.8,-3.7 -0.8,-3.7 0.8,0 2.3,1.1 3.4,2.4 1.8,2.4 2.1,2.4 5.8,1.1 2.1,-0.8 6.1,-1.4 8.8,-1.5 5,0 5,0 2.1,-3 -2.8,-3 -2.8,-3 -3.9,-0.7 -2,3.9 -4.7,3.2 -10.6,-2.8 -5.7,-5.7 -7,-6.5 -7,-4 0,0.8 -0.9,1.9 -2,2.5 -1.7,0.9 -3.9,0 -13.6,-5.5 -6.3,-3.7 -11.9,-6.5 -12.4,-6.3 -0.5,0.2 2,5.5 5.5,11.8 3.6,6.3 6.5,12.3 6.5,13.3 0,0.9 -1.1,2.3 -2.5,2.9 -2.5,1.1 -2.5,1.1 3.5,7.4 6.2,6.5 6.7,8.4 2.8,10.5 -1.9,1.1 -1.9,1.1 0.4,3.6 2.3,2.5 2.3,2.5 3,-2.4 0.4,-2.6 1.2,-6.5 1.9,-8.5 z"
           id="path6" />
        <path
           d="m 155.5,110.1 c -5.4,-1.3 -7.9,-3.2 -18.7,-13.9 -10.6,-10.5 -10.6,-10.5 -8.5,-12.3 2.2,-1.8 2.2,-1.8 -2,-6.1 -2.4,-2.4 -4.3,-4.7 -4.3,-5.1 0,-0.4 1.1,-0.7 2.5,-0.7 1.4,0 2.8,-0.7 3.1,-1.5 0.3,-0.8 -2.4,-6.6 -6.1,-13.1 -3.6,-6.4 -6.5,-11.7 -6.3,-11.9 0.2,-0.2 5.5,2.6 11.8,6.1 6.2,3.6 12.1,6.3 12.9,6.2 0.9,-0.2 1.8,-1.6 2.1,-3.1 0.5,-2.8 0.5,-2.8 4.5,1.2 4.3,4.5 5.1,4.8 7.5,2.6 1.5,-1.3 2.7,-0.4 13.2,10.3 10.5,10.6 11.7,12.2 12.6,16.7 1.5,7.2 -0.8,15.5 -5.4,19.6 -4.8,4.2 -13.2,6.4 -18.9,5 z m 21.4,-19.9 c 0,-9.3 -7.5,-16.9 -16.8,-16.9 -9.4,0 -16.9,7.6 -16.9,16.9 0,9.3 7.5,16.9 16.9,16.9 9.3,0 16.8,-7.6 16.8,-16.9 z m -7.1,13.9 M 141.4,82.2 c 0.3,-0.6 0.2,-1.3 -0.4,-1.7 -0.6,-0.4 -0.8,-1.1 -0.4,-1.6 0.3,-0.5 0.9,-0.7 1.3,-0.5 1.2,0.7 6.4,-5.1 5.7,-6.2 -0.3,-0.6 0.8,-1 2.7,-1 1.7,0 5.5,-0.5 8.2,-1 5,-1 5,-1 0.5,-1.1 -3.9,-0.1 -5.1,-0.7 -8.4,-4 -3.9,-4 -3.9,-4 -5.6,-1.9 -1.7,2.2 -1.7,2.2 -9.8,-2.6 -4.5,-2.6 -8.6,-4.6 -9.1,-4.4 -0.5,0.1 1.1,3.7 3.5,7.8 4.7,8 5.3,10.4 2.9,11.7 -1.2,0.7 -0.8,1.6 2.5,4.8 4.2,4.1 5.1,6.9 2.4,7.9 -1.5,0.6 -1.5,0.8 0.2,2.7 1.9,2.1 1.9,2.1 2.5,-2.9 0.4,-2.7 0.9,-5.5 1.3,-6 z"
           id="path7" />
      </g>
      <g
         id="g75">
        <g
           fill="#e59843"
           id="g12">
          <path
             d="M 118,225.8 C 106.7,224 103.1,221.5 80.3,198.7 68.6,187.1 59,177.3 59,176.9 c 0,-0.4 1.1,-1 2.5,-1.3 1.4,-0.4 3.1,-1.8 3.7,-3.1 1.1,-2.4 0.6,-3.1 -7.1,-11 -4.6,-4.6 -8,-8.9 -7.6,-9.5 0.3,-0.5 2.5,-1 4.9,-1 4.5,0 6.6,-1.3 6.6,-4.3 0,-1 -5.4,-11.5 -12.1,-23.3 -6.6,-11.8 -11.8,-22.1 -11.5,-22.9 0.3,-1 6.3,1.9 22.5,11.1 12.1,6.8 22.9,12.4 23.9,12.4 2.9,0 4.2,-2.1 4.2,-6.6 0,-2.4 0.5,-4.6 1,-4.9 0.6,-0.4 4.9,3 9.5,7.6 7.9,7.7 8.6,8.2 11,7.1 1.3,-0.6 2.7,-2.3 3.1,-3.7 0.3,-1.4 0.9,-2.5 1.3,-2.5 0.4,0 10.2,9.6 21.8,21.3 13,13.1 21.9,22.9 23.3,25.6 14.7,29.3 -9.6,62.9 -42,57.9 z m 20.4,-11.2 c 15.4,-7.5 22,-27.2 14.3,-42.1 -2.4,-4.7 -27.8,-32.5 -29.7,-32.5 -0.5,0 -1.5,1.2 -2.2,2.8 -0.9,1.8 -2.2,2.8 -4.1,3 -2.3,0.3 -4.1,-0.9 -10.6,-7.2 -4.2,-4.2 -8,-7.6 -8.4,-7.6 -0.4,0 -0.7,0.8 -0.7,1.8 0,2.5 -2,4.2 -4.8,4.2 -1.3,0 -9.2,-3.8 -17.4,-8.5 -15,-8.4 -16.8,-9.3 -16.8,-7.6 0,0.4 3.8,7.6 8.5,15.8 4.7,8.3 8.5,16.1 8.5,17.5 0,2.8 -1.7,4.8 -4.2,4.8 -1,0 -1.8,0.3 -1.8,0.7 0,0.4 3.4,4.2 7.6,8.4 6.3,6.5 7.5,8.3 7.2,10.6 -0.2,1.9 -1.2,3.2 -3,4.1 -1.6,0.7 -2.8,1.7 -2.8,2.1 0,1.5 27,27.1 30.4,28.8 9.7,5.1 20.8,5.4 30,0.9 z"
             id="path10" />
          <path
             d="m 250,131.6 c -7.9,-1.7 -10.8,-3.8 -27,-20 C 208.7,97.2 208.6,97 210.8,95.4 c 3.4,-2.3 2.7,-4.5 -3.3,-10.4 -3,-3 -5.5,-5.8 -5.5,-6.2 0,-0.4 1.6,-0.8 3.5,-0.8 2.4,0 3.7,-0.6 4.5,-2 0.9,-1.7 -0.4,-4.6 -8,-18.2 -5,-8.8 -8.9,-16.5 -8.8,-17 0.2,-0.4 7.5,3.2 16.3,8.2 8.8,4.9 16.8,9 17.7,9 2,0 3.8,-2.9 3.8,-5.9 0,-1.2 0.3,-2.1 0.7,-2.1 0.4,0 3.3,2.5 6.4,5.6 6,5.9 8.5,6.5 9.6,2.4 0.3,-1.1 0.8,-2 1.2,-2 1.6,0 31.1,31 32.9,34.5 3.4,7.1 4.3,12.5 2.8,18 -3.4,12.9 -11.4,21.2 -22.1,23 -2.2,0.4 -4.7,0.8 -5.5,1 -0.8,0.2 -4,-0.2 -7,-0.9 z m 16.8,-7 c 4.9,-2.5 9.8,-8.5 11.6,-13.7 3.7,-11.5 1.5,-16.9 -12.8,-31.2 -10.5,-10.6 -10.9,-10.8 -12,-8.5 -2,4 -4.6,3.3 -10.6,-2.7 -5.7,-5.7 -7,-6.5 -7,-4 0,0.8 -0.9,1.9 -2,2.5 -1.7,0.9 -3.9,0 -13.6,-5.5 -6.3,-3.7 -11.9,-6.5 -12.4,-6.3 -0.5,0.2 2,5.5 5.5,11.8 3.6,6.3 6.5,12.3 6.5,13.3 0,0.9 -1.1,2.3 -2.5,2.9 -2.5,1.1 -2.5,1.1 3.5,7.4 6.2,6.5 6.7,8.4 2.8,10.5 -1.9,1 -1.3,1.8 7.3,10.6 10.8,10.8 13.9,13.3 18.3,14.4 4.2,1.1 14,0.3 17.4,-1.5 z"
             id="path11" />
          <path
             d="m 155.5,110.1 c -5.4,-1.3 -7.9,-3.2 -18.7,-13.9 -10.6,-10.5 -10.6,-10.5 -8.5,-12.3 2.2,-1.8 2.2,-1.8 -2,-6.1 -2.4,-2.4 -4.3,-4.7 -4.3,-5.1 0,-0.4 1.1,-0.7 2.5,-0.7 1.4,0 2.8,-0.7 3.1,-1.5 0.3,-0.8 -2.4,-6.6 -6.1,-13.1 -3.6,-6.4 -6.5,-11.7 -6.3,-11.9 0.2,-0.2 5.5,2.6 11.8,6.1 6.2,3.6 12.1,6.3 12.9,6.2 0.9,-0.2 1.8,-1.6 2.1,-3.1 0.5,-2.8 0.5,-2.8 4.5,1.2 4.3,4.5 5.1,4.8 7.5,2.6 1.5,-1.3 2.7,-0.4 13.2,10.3 10.5,10.6 11.7,12.2 12.6,16.7 1.5,7.2 -0.8,15.5 -5.4,19.6 -4.8,4.2 -13.2,6.4 -18.9,5 z m 14.3,-6 c 6,-4.3 9.1,-14.5 6.1,-20.4 -0.6,-1.2 -3.9,-5 -7.2,-8.4 -5.6,-5.7 -6.5,-6.3 -10.2,-6.3 -3.4,0 -4.7,-0.6 -7.9,-3.9 -3.9,-4 -3.9,-4 -5.6,-1.9 -1.7,2.2 -1.7,2.2 -9.8,-2.6 -4.5,-2.6 -8.6,-4.6 -9.1,-4.4 -0.5,0.1 1.1,3.7 3.5,7.8 4.7,8 5.3,10.4 2.9,11.7 -1.2,0.7 -0.8,1.6 2.5,4.8 4.3,4.2 4.9,6.1 2.5,7.9 -1.2,0.9 -0.4,2.3 5.3,8.3 3.7,3.9 8.1,7.9 9.7,8.8 4.3,2.3 13.2,1.6 17.3,-1.4 z"
             id="path12" />
        </g>
        <g
           fill="#e48929"
           id="g19">
          <path
             d="m 156,209.9 c 0,-0.3 0.8,-2.1 1.7,-4 2.5,-5 3,-19.1 0.9,-26.2 -0.9,-3.2 -2,-5.7 -2.5,-5.7 -0.5,0 -1.4,-1.3 -2,-2.9 -0.7,-1.5 -10.4,-12.2 -21.5,-23.6 -19.9,-20.3 -20.3,-20.9 -19.2,-23.6 0.6,-1.6 1.3,-2.9 1.6,-2.9 0.3,0 10.1,9.6 21.7,21.3 13,13.1 21.9,22.9 23.3,25.6 1.2,2.4 2.8,7.5 3.6,11.3 1.6,7.8 0.8,15.5 -2.6,23.1 -1.7,4 -4.9,8.8 -5,7.6 z"
             id="path14" />
          <path
             d="m 95.3,125.3 c -4.6,-4.8 -6.3,-7.4 -6.3,-9.4 0,-1.5 0.5,-3.1 1,-3.4 0.6,-0.4 5,3.1 9.7,7.8 7.6,7.4 8.5,8.7 7.4,10.1 -2.5,3 -5.4,1.8 -11.8,-5.1 z"
             id="path15" />
          <path
             d="M 67,122.1 C 43.5,109.1 40.2,107 39,104 c -0.7,-1.6 -0.9,-3.3 -0.6,-3.8 0.3,-0.6 10.7,4.7 23,11.6 19.5,11 22.3,12.9 21.5,14.4 -1.6,2.9 -4.9,2.1 -15.9,-4.1 z"
             id="path16" />
          <path
             d="m 279.5,119.5 c 3.3,-9.8 3.1,-18.6 -0.4,-23.1 -1.2,-1.5 -2.1,-3.2 -2.1,-3.8 0,-0.6 -3.8,-5.1 -8.5,-10.1 -16,-16.8 -21.1,-22.9 -20.7,-24.8 0.2,-0.9 0.7,-1.7 1,-1.7 1.7,0 31.2,30.9 33,34.5 4.8,9.9 4.6,17.4 -0.7,27 -1.2,2.2 -1.9,3.1 -1.6,2 z"
             id="path17" />
          <path
             d="m 178.7,95.6 c 1,-6.4 -2.7,-12.9 -15.1,-26.1 -6.4,-6.8 -9.6,-10.9 -9,-11.5 0.7,-0.7 5.2,3.2 12.6,10.7 10.5,10.7 11.7,12.3 12.6,16.8 0.7,3.1 0.8,6.5 0.2,8.9 -1.1,5 -2.1,5.8 -1.3,1.2 z"
             id="path18" />
          <path
             d="m 218.6,60.1 c -0.3,-0.5 -5.7,-3.9 -12,-7.6 -9.9,-5.8 -15.1,-10.4 -13.5,-12 0.9,-0.8 33,17.7 32.6,18.9 -0.5,1.4 -6.3,2 -7.1,0.7 z"
             id="path19" />
        </g>
        <g
           id="g72">
          <path
             style="fill:#b3b3b3;stroke:#b3b3b3;stroke-width:0.615385"
             d="m 153.75713,105.57134 c -1.06434,-0.46312 -3.11549,-1.90612 -4.5581,-3.20668 -11.57273,-10.433197 -3.63865,-29.449043 11.85115,-28.404 5.12417,0.345709 7.90695,1.787529 10.87487,5.634501 3.67544,4.764054 4.37531,6.453953 4.37284,10.558685 -0.004,6.972268 -4.58671,13.585874 -10.66405,15.390654 -3.81751,1.13368 -9.30443,1.14608 -11.87671,0.0268 z"
             id="path52" />
          <path
             style="fill:#b3b3b3;stroke:none;stroke-width:0.615385"
             d="m 152.26223,104.10345 c -5.38561,-3.41545 -8.04382,-7.97158 -8.0284,-13.760518 0.0125,-4.684016 1.98144,-9.13533 5.35397,-12.103952 3.10097,-2.729585 6.14262,-3.777442 10.9649,-3.777442 5.78527,0 9.02308,2.053654 13.21456,8.38164 1.61629,2.440146 1.92505,3.494811 1.92505,6.575545 0,5.068235 -1.02492,8.020295 -3.93065,11.321377 -3.37621,3.83558 -6.32353,5.07574 -12.10272,5.09254 -4.05978,0.0118 -4.9969,-0.20728 -7.39671,-1.72919 z"
             id="path57" />
        </g>
        <g
           id="g73">
          <path
             style="fill:#666666;stroke:#b3b3b3;stroke-width:0.615385"
             d="m 115.38462,216.07031 c -5.50739,-1.78058 -8.6732,-3.70647 -12.68127,-7.71454 -8.771216,-8.77121 -11.604289,-21.33701 -7.355567,-32.62483 6.955207,-18.47827 29.151047,-26.03778 45.680607,-15.55801 2.95205,1.87161 9.47212,9.20601 11.2005,12.59942 4.42095,8.67983 4.17488,19.52566 -0.64831,28.57489 -3.60788,6.76908 -12.35573,13.5494 -19.65114,15.23129 -4.28578,0.98805 -12.71797,0.72903 -16.54482,-0.50822 z"
             id="path51" />
          <path
             style="fill:#b3b3b3;stroke:#b3b3b3;stroke-width:0.615385"
             d="m 123.07692,216.56001 c -7.85401,-0.42126 -11.60078,-1.64303 -16.58968,-5.40968 -10.149816,-7.66319 -14.78823,-20.49446 -11.697758,-32.35958 3.865499,-14.84066 19.671268,-25.19325 34.567888,-22.64157 8.45179,1.44773 15.34672,6.25189 21.21602,14.78262 5.75981,8.3716 5.67761,22.42026 -0.18502,31.62304 -3.59464,5.64261 -10.10407,10.70234 -16.78933,13.05022 -3.28568,1.15393 -4.59561,1.27282 -10.52212,0.95495 z"
             id="path58" />
        </g>
        <g
           id="g71">
          <circle
             style="fill:#666666;stroke:#b3b3b3"
             id="path59"
             cx="127.84615"
             cy="171.84616"
             r="6.6153846" />
          <circle
             style="fill:#666666;stroke:#b3b3b3"
             id="path60"
             cx="110"
             cy="197.07692"
             r="5.3846154" />
          <circle
             style="fill:#666666;stroke:#b3b3b3"
             id="path61"
             cx="133.84616"
             cy="196"
             r="5.5384617" />
        </g>
        <g
           id="g70">
          <circle
             style="fill:#666666;stroke:#b3b3b3"
             id="path62"
             cx="157.84616"
             cy="83.384613"
             r="3.6923077" />
          <circle
             style="fill:#666666;stroke:#b3b3b3"
             id="path63"
             cx="153.38461"
             cy="98.307693"
             r="3.5384614" />
          <circle
             style="fill:#666666;stroke:#b3b3b3"
             id="path64"
             cx="166.30769"
             cy="95.846153"
             r="4.7692308" />
        </g>
        <g
           id="g69">
          <circle
             style="fill:#666666;stroke:#b3b3b3"
             id="path65"
             cx="248"
             cy="101.84615"
             r="5.2307692" />
          <circle
             style="fill:#666666;stroke:#b3b3b3"
             id="path67"
             cx="257.84616"
             cy="116.30769"
             r="2.7692308" />
          <circle
             style="fill:#666666;stroke:#b3b3b3"
             id="path68"
             cx="263.38461"
             cy="96.615387"
             r="6.1538463" />
        </g>
      </g>
    </g>
  </g>
</svg>
