<?xml version="1.0" encoding="UTF-8" standalone="no"?>
<!-- Created with Inkscape (http://www.inkscape.org/) -->

<svg
   width="1277.8884"
   height="580.77936"
   viewBox="0 0 1277.8884 580.77936"
   version="1.1"
   id="svg1"
   xml:space="preserve"
   xmlns="http://www.w3.org/2000/svg"
   xmlns:svg="http://www.w3.org/2000/svg"><defs
     id="defs1"><style
       type="text/css"
       id="style1">
   <![CDATA[
    .fil1 {fill:none}
    .fil0 {fill:#2B2A29}
   ]]>
  </style></defs><g
     id="layer1"
     transform="translate(-77.49457,-132.91415)"><g
       style="clip-rule:evenodd;fill-rule:evenodd;image-rendering:optimizeQuality;shape-rendering:geometricPrecision;text-rendering:geometricPrecision"
       id="g1"
       transform="matrix(0.07540535,0,0,0.07540535,77.494531,132.91515)"><g
         id="Layer_x0020_1">
  <metadata
   id="CorelCorpID_0Corel-Layer" />
  <g
   id="_2408212217632">
   <path
   class="fil0"
   d="M 359.31,2262.03 C 116.3,3564.09 232.08,4926.78 1053.72,6018.25 2397.85,7803.79 4513.21,7465.56 5307.59,5311.77 l 132.56,-413.86 c -55.86,356.9 -63.17,485.14 -164.9,826.22 C 4649.07,7823.39 2642.74,8114.11 1165.47,6742.77 -192.2,5482.45 -223.21,3912.72 359.31,2262.02 Z"
   id="path1"
   style="fill:#000000;fill-opacity:1" />
  </g>
  <path
   class="fil1"
   d="m 359.31,2262.03 c -1440.38,4623.64 4155.3,7380.51 5080.84,2635.88"
   id="path2" />
  <g
   id="_2408212217680">
   <path
   class="fil0"
   d="M 5461.97,3231.46 C 5168.53,1975.01 4400.81,-279.37 2568.17,285.47 1566.23,594.29 555.74,1954.24 1145.95,2936.25 c 667.89,1111.27 2534.39,1848.47 3817.89,1253.15 352.76,-163.61 845.36,-538.83 1239.9,-751.22 478.82,-257.74 1482,-712.91 2049.03,-623.2 493.78,78.13 -89.16,598.59 -128.24,654.68 -256.48,368.02 -565.01,1196.97 53.43,1303.56 311.16,-832.22 948.84,-1262.14 1881.65,-1446.49 353.14,-69.8 1656.23,-132.28 1723.6,330.73 24.71,169.78 -322.54,350.2 -23.15,1544 58.31,232.52 130.62,471.02 200.75,705.92 1256.03,-410.31 3788.03,321.2 3001.96,-1692.22 -210.26,-538.56 -582.87,-999.62 -1126.37,-1262.61 -659.86,-319.28 -1830.8,-702.54 -1779.74,-1606.17 72.32,-1279.95 3138.16,-2026.05 4194.76,-474.56 l 131.84,226.23 -140.98,-220.25 c -929.44,-1250.06 -3420.97,-858.45 -3906.87,204.5 -407.62,891.68 1030.27,1336.54 1609.34,1587.82 774.56,336.11 1381.89,1077.09 1538.35,1884.72 350.37,1808.41 -1928.54,1509.67 -3037.28,1637.22 -660.68,76.01 -685.9,500.99 -901.68,-234.24 -201.79,-687.65 -501.26,-1490.82 -232.32,-2189.18 -419.48,-182.22 -999.2,-110.79 -1413.55,8.07 -759.21,217.78 -1126.95,542.74 -1369.26,1245.34 -121.44,352.14 -857.34,141.06 -1052.28,-324.16 -214.39,-511.63 18.34,-1020.59 321.79,-1448.97 -346.31,54.54 -643.99,169.97 -1004.52,339.77 -603.71,284.33 -1147.86,727.72 -1648.95,960.09 C 3660.22,5237.36 1571.53,4451.33 835.94,3099.81 140.77,1822.58 1505.46,114.17 2907.37,36.24 4648.13,-60.53 5223.29,1969.12 5461.97,3231.43 Z"
   id="path3"
   style="fill:#000000;fill-opacity:1" />
  </g>
  <path
   class="fil1"
   d="M 5461.97,3231.46 C 4570.96,-1556.92 1113.92,65.06 802.2,2240.54 615.11,3546.25 3459.12,5508.53 5433.96,4152.84 6672.01,3302.92 7617.93,2978.79 8240.41,3014.19 c -892.35,896.93 -808.38,2031.7 84.14,1969.42 307.17,-1497.9 2646.45,-1797.51 3252.29,-1298.59 -407.89,591.4 63.27,1817.38 248.1,2495.56 558.02,-412.38 2214.45,-29.95 3065.8,-530.35 996.15,-585.51 15.61,-2481.54 -1000.16,-2838.88 -4546.99,-1599.64 1170.19,-4254.73 2492.68,-1713.29"
   id="path4" />
  <g
   id="_2408212221232">
   <path
   class="fil0"
   d="M 5815.15,7451.31 C 6487.76,5096.88 6124.73,6266.6 6904.41,3942.21 h 0.04 c -411.24,2416.94 -178.43,1214.52 -698.22,3607.33 -27.13,108 -136.66,173.55 -244.65,146.42 -108,-27.13 -173.55,-136.66 -146.42,-244.65 z"
   id="path5"
   style="fill:#000000;fill-opacity:1" />
  </g>
  <line
   class="fil1"
   x1="6010.6899"
   y1="7500.4302"
   x2="6904.4302"
   y2="3942.21"
   id="line5" />
  <g
   id="_2408212220848">
   <path
   class="fil0"
   d="m 7327.52,2615.04 c 45.84,-144.81 714.6,-2378.2 805.07,-2453.3 549.35,-456 1407.87,2714.24 1516.31,3072.68 L 9547.88,3016.11 C 9083.38,1999.68 8833.02,1510.09 8269.21,646.17 Z"
   id="path6"
   style="fill:#000000;fill-opacity:1" />
  </g>
  <path
   class="fil1"
   d="M 7327.52,2615.04 8243.94,295.9 c 628.84,663.5 1228.32,2502.89 1404.95,2938.52"
   id="path7" />
  <g
   id="_2408212219696">
   <path
   class="fil0"
   d="m 10133.64,4228.96 c 352.67,713.72 704.35,1299.42 1090.8,1988.98 183.72,327.81 254.17,492.75 350.49,767.96 1734.47,-936.32 5320.81,843.85 4210.08,-2944.86 l -140.13,-433.82 c 194.43,390.61 358.18,711.06 488.71,1130.59 905.46,2910.18 -2476.43,2097.52 -4006.42,2451.72 -378.2,87.55 -620.6,420.49 -798.79,250.62 -64.71,-61.68 -1077.89,-2845.79 -1194.75,-3211.2 z"
   id="path8"
   style="fill:#000000;fill-opacity:1" />
  </g>
  <path
   class="fil1"
   d="m 10133.64,4228.96 c 625.56,1579.35 1016.84,2039.97 1333.86,3065.27 1212.18,-1167.95 6229.72,1024.12 4177.38,-3687.01"
   id="path9" />
  <g
   id="_2408212224304">
   <path
   class="fil0"
   d="m 13728.51,2256.13 c -575.46,-130.71 -1454.22,-461.91 -946.32,-1199.13 460.64,-668.64 1715.31,-800.61 2444.29,-557.33 1221.1,407.52 1552.3,1399.25 1720.44,2559.08 C 16753.58,2386.04 16627.19,2000.71 16166,1460.09 15418.76,584.15 14159.37,322.87 13183.69,1008.3 c -823.88,578.79 -83.56,1011.87 544.82,1247.83 z"
   id="path10"
   style="fill:#000000;fill-opacity:1" />
  </g>
  <path
   class="fil1"
   d="m 13728.51,2256.13 c -3238.8,-820.77 2403.75,-3909.28 3218.41,802.61"
   id="path11" />
 </g></g><path
       style="fill:#000000;fill-opacity:1;stroke:none;stroke-width:1.29808;stroke-opacity:1"
       d="M 282.98077,701.72839 C 237.23171,693.58379 195.31374,670.3721 156.91206,631.91897 122.42609,597.38679 99.528433,559.01445 87.616249,515.7917 c -6.862213,-24.89918 -8.909825,-41.37856 -8.927508,-71.84939 -0.01652,-28.46895 1.827532,-46.27774 7.643727,-73.81869 3.390314,-16.05389 13.721582,-53.72342 14.516262,-52.92873 0.26042,0.26042 -0.54807,8.00231 -1.796656,17.2042 -1.753904,12.92607 -2.269212,25.88157 -2.266035,56.9711 0.0036,35.5254 0.343647,42.29369 2.901888,57.76443 5.800173,35.07603 14.297673,62.24792 28.652053,91.61872 21.94573,44.90362 56.36135,84.51488 92.98214,107.01941 30.56448,18.78277 60.4468,26.9141 93.97447,25.57159 53.12181,-2.12709 99.34376,-30.56374 134.45501,-82.71934 10.12646,-15.04222 24.18663,-44.12 30.44191,-62.95673 2.84501,-8.56731 5.19851,-14.94891 5.23,-14.18135 0.0315,0.76757 -1.09829,7.77718 -2.51061,15.57692 -9.8288,54.28061 -30.19045,96.96334 -60.99005,127.84928 -21.7276,21.78853 -44.27121,34.921 -72.74016,42.37381 -10.22564,2.67693 -16.10051,3.3091 -34.39904,3.70148 -14.68946,0.31499 -25.32223,-0.10628 -31.80288,-1.26002 z"
       id="path15" /><path
       style="fill:#000000;fill-opacity:1;stroke:none;stroke-width:0.917879;stroke-opacity:1"
       d="m 963.10752,612.89329 c -5.52832,-3.15886 -8.63297,-10.6209 -19.56348,-47.02089 -21.36221,-71.13884 -25.12516,-102.41924 -16.37701,-136.13773 1.53011,-5.8976 2.85432,-11.30492 2.94268,-12.01626 0.0994,-0.80055 -1.76292,-1.96932 -4.88768,-3.06742 -20.98308,-7.37379 -49.97736,-8.11369 -81.29707,-2.07463 -26.47908,5.1057 -56.91356,16.4893 -72.59328,27.15252 -22.82333,15.52136 -38.21246,36.47003 -49.49895,67.38119 -3.289,9.00785 -7.9731,14.22359 -14.38634,16.01918 -5.51996,1.5455 -18.81196,0.87515 -25.00336,-1.26098 -23.71758,-8.18293 -39.20276,-24.38322 -44.4978,-46.55272 -6.39632,-26.7804 0.22177,-54.0124 21.11373,-86.87837 3.62949,-5.70968 6.45177,-10.51595 6.27172,-10.68061 -0.80119,-0.73271 -21.61236,4.25313 -32.45311,7.77497 -31.90117,10.36372 -62.40056,25.95049 -109.2276,55.82098 -53.37558,34.04773 -72.61023,42.935 -106.57894,49.24417 -54.43563,10.11061 -113.18814,0.85496 -168.78476,-26.5897 -42.52116,-20.9901 -76.00318,-49.38367 -99.05977,-84.00509 -10.4355,-15.6698 -17.22328,-31.44286 -20.4314,-47.4774 -2.38337,-11.9123 -2.11833,-34.29788 0.55678,-47.02602 11.46265,-54.53934 51.93773,-105.31551 105.22164,-132.00102 32.06317,-16.0578 66.88708,-21.34997 98.64915,-14.99167 60.18133,12.04743 105.27429,63.68822 134.7333,154.29761 5.69378,17.51278 13.29184,45.53144 12.76167,47.05999 -0.21531,0.62076 -0.71505,-0.31507 -1.11053,-2.07962 -0.39547,-1.76455 -3.30389,-11.05808 -6.46316,-20.65228 -32.91055,-99.9444 -80.80139,-157.61304 -139.49494,-167.97538 -4.65747,-0.82228 -13.4672,-1.46752 -20.19637,-1.47922 -42.00091,-0.073 -80.6526,18.00483 -115.22292,53.89117 -30.16677,31.31515 -47.71523,69.59005 -47.69063,104.01792 0.013,18.234 4.14892,33.96358 12.64078,48.07528 19.87136,33.02202 51.23578,60.65316 92.44943,81.44526 18.22228,9.19306 30.8959,14.29375 47.60711,19.16025 39.80229,11.59086 76.65759,13.88927 111.18596,6.93389 28.87575,-5.81671 40.70131,-11.66785 98.67199,-48.82171 23.32239,-14.94751 36.00983,-22.16502 54.6138,-31.06821 33.91742,-16.23167 64.93265,-27.44697 92.95762,-33.61406 7.17811,-1.5796 12.16365,-1.97922 25.44877,-2.03984 15.09109,-0.0689 16.89374,0.0965 20.81658,1.90939 12.45409,5.75557 8.81199,18.2564 -11.95292,41.02617 -14.34709,15.73231 -26.5406,44.30901 -28.25425,66.21664 -1.37785,17.61455 5.81276,31.09727 19.27007,36.1323 7.78322,2.91208 8.31401,2.74784 10.7241,-3.31812 11.77043,-29.62494 32.48358,-55.14618 59.00718,-72.70433 25.2111,-16.6893 64.52184,-29.94831 97.90216,-33.02113 13.57438,-1.2496 45.71919,-1.25596 57.95859,-0.0115 26.11071,2.65491 44.00318,9.40449 50.75401,19.14595 3.91072,5.64315 3.94798,9.26118 0.19938,19.35634 -4.41849,11.89925 -5.88494,17.47296 -6.99702,26.59441 -2.45523,20.13819 0.4264,46.8143 8.53369,78.99869 3.0825,12.23697 14.32457,51.46888 14.95689,52.19572 0.17828,0.20493 4.76882,-0.71471 10.20121,-2.04364 21.57178,-5.27707 39.15148,-7.19016 90.03878,-9.79834 57.4516,-2.94465 79.1067,-5.85825 98.8922,-13.30551 20.7732,-7.81898 33.4421,-20.82958 37.6476,-38.66271 2.2983,-9.74605 1.3499,-27.12943 -2.2228,-40.74164 -3.8228,-14.56491 -7.3978,-23.99833 -14.7836,-39.00986 -11.0179,-22.39386 -25.192,-41.21493 -41.7308,-55.41254 -16.0731,-13.79773 -27.7944,-20.67403 -58.8334,-34.51444 -19.8107,-8.83367 -46.3557,-22.23012 -56.3166,-28.42119 -29.5637,-18.37512 -46.27374,-37.4021 -52.61606,-59.91174 -2.89326,-10.26851 -2.8675,-25.62729 0.0589,-35.1146 4.44499,-14.41053 11.10476,-24.70883 24.09036,-37.25209 25.662,-24.78792 66.5095,-42.14945 114.6145,-48.71508 13.7275,-1.87361 46.8979,-2.13555 58.7442,-0.46389 31.5035,4.44553 58.2607,13.9308 79.4147,28.15204 7.7083,5.18209 19.2113,14.99938 18.4579,15.75289 -0.2313,0.23118 -2.7297,-1.46067 -5.5523,-3.75966 -20.5249,-16.7177 -51.3294,-28.80541 -84.5183,-33.1649 -22.7979,-2.9946 -55.0046,-1.69002 -78.7144,3.18845 -34.0927,7.01487 -64.2966,20.82337 -85.127,38.91806 -20.1715,17.52237 -30.78819,39.73017 -28.3871,59.37959 1.4595,11.94412 6.894,22.04185 17.837,33.14259 16.9253,17.16928 40.0786,30.20565 89.3661,50.31716 11.2918,4.60759 23.8716,10.05725 27.955,12.11037 59.3968,29.86409 101.8134,88.74612 108.9895,151.29725 3.7235,32.45606 -7.3091,59.91384 -30.4963,75.89965 -9.2681,6.38954 -18.3765,10.80715 -30.9517,15.01163 -26.5608,8.88049 -53.4774,12.38939 -115.7616,15.09089 -57.4299,2.49095 -64.7393,3.53522 -86.77336,12.39696 -12.77812,5.13915 -16.57934,5.98942 -19.44813,4.35019 z"
       id="path17" /><path
       style="fill:#000000;fill-opacity:1;stroke:none;stroke-width:2.59615;stroke-opacity:1"
       d="m 1342.5162,319.05406 c -4.626,-15.80875 -21.4024,-46.50152 -35.2633,-64.51471 -27.9124,-36.2743 -66.7066,-62.38461 -106.5317,-71.70088 -23.6164,-5.52456 -66.366,-3.78497 -87.0961,3.54414 -29.6123,10.46942 -58.4562,29.93802 -66.0171,44.55913 -8.7908,16.99956 -2.4941,35.15689 17.1187,49.36436 14.2593,10.32939 7.6273,10.16564 -8.5432,-0.21094 -31.2387,-20.04586 -33.1596,-45.25582 -5.7075,-74.90738 23.9828,-25.90426 57.3218,-38.56895 107.4086,-40.80192 35.8673,-1.59904 59.8813,2.72998 86.8798,15.66194 38.0297,18.21571 61.6565,41.3413 80.2852,78.58221 9.5179,19.02724 23.599,63.45293 21.8116,68.81509 -0.5534,1.66034 -2.5087,-2.11563 -4.345,-8.39104 z"
       id="path18" /><path
       style="fill:#000000;fill-opacity:1;stroke:none;stroke-width:0.917879;stroke-opacity:1"
       d="m 524.10891,711.5489 c -3.82483,-2.0907 -7.07729,-6.56259 -7.87823,-10.83197 -0.44869,-2.39168 2.78922,-14.98553 14.30995,-55.65858 22.27257,-78.63157 24.93913,-87.32465 45.26569,-147.56793 21.75854,-64.48732 19.73134,-58.66038 19.82468,-56.98368 0.15934,2.86205 -18.67341,113.05567 -22.91601,134.08551 -10.2226,50.6717 -28.10011,129.48229 -29.92703,131.92924 -4.64786,6.2253 -12.58126,8.36055 -18.67905,5.02741 z"
       id="path24" /><path
       style="fill:#000000;fill-opacity:1;stroke:none;stroke-width:0.917879;stroke-opacity:1"
       d="m 934.26595,695.27684 c -2.73739,-1.48703 -6.0134,-8.75631 -17.77977,-39.4523 -21.5061,-56.10489 -70.2278,-189.83588 -70.18683,-192.64833 0.008,-0.56328 3.97765,6.61721 8.82098,15.95663 11.4228,22.02664 19.46957,36.59102 47.92327,86.73956 27.22343,47.98023 35.68602,64.30343 41.87609,80.77335 2.46659,6.56284 4.77482,12.27334 5.1294,12.69 0.3546,0.41666 3.50104,-0.68085 6.99211,-2.43893 14.23625,-7.16926 38.33682,-13.76307 62.5182,-17.10467 19.6206,-2.71136 34.9232,-3.61203 86.3972,-5.08506 59.7366,-1.70949 73.0164,-2.7277 96.0059,-7.3611 54.0842,-10.90034 78.8982,-38.52411 81.7671,-91.0257 1.4233,-26.04543 -5.4245,-66.8962 -17.5872,-104.91716 -5.9375,-18.56076 -5.8557,-18.70004 1.8856,-3.21258 13.9452,27.89898 24.1142,54.51435 30.2692,79.22367 4.9589,19.90703 6.398,30.77314 6.3443,47.90257 -0.051,16.15267 -1.2465,24.088 -5.4459,36.1368 -9.1664,26.3006 -31.7562,45.82325 -66.0036,57.04185 -30.8052,10.09104 -63.8513,14.10872 -139.5392,16.9649 -58.7342,2.21642 -85.1761,4.7785 -105.09712,10.18339 -3.78625,1.02728 -11.63412,4.3905 -17.4397,7.47385 -24.70755,13.12219 -25.67133,13.55429 -30.14592,13.51583 -2.351,-0.0202 -5.36785,-0.63067 -6.70411,-1.35657 z"
       id="path25" /><path
       style="fill:#000000;fill-opacity:1;stroke:none;stroke-width:1.29808;stroke-opacity:1"
       d="m 788.06687,338.37602 c -14.06171,-30.49671 -37.30499,-76.05802 -49.97845,-97.96745 -12.91967,-22.33508 -35.25483,-57.83744 -36.68685,-58.31478 -0.61244,-0.20415 -15.36058,29.43159 -32.77364,65.8572 -17.41306,36.4256 -31.92689,65.96159 -32.25296,65.63553 -1.53872,-1.53873 47.25477,-153.23451 52.75847,-164.02266 2.87351,-5.63254 4.72625,-6.7754 10.9839,-6.7754 18.04161,0 44.00805,47.46946 73.49179,134.35096 9.92755,29.25411 26.5475,83.61741 25.7939,84.37101 -0.25188,0.25187 -5.35315,-10.15861 -11.33616,-23.13441 z"
       id="path26" /></g></svg>
