<?xml version="1.0" encoding="UTF-8" standalone="no"?>
<!-- Created with Inkscape (http://www.inkscape.org/) -->

<svg
   width="1459.1877"
   height="909.0282"
   viewBox="0 0 1459.1877 909.0282"
   version="1.1"
   id="svg1"
   xml:space="preserve"
   xmlns="http://www.w3.org/2000/svg"
   xmlns:svg="http://www.w3.org/2000/svg"><defs
     id="defs1"><style
       type="text/css"
       id="style1">
   <![CDATA[
    .fil1 {fill:none}
    .fil0 {fill:#2B2A29}
   ]]>
  </style></defs><g
     id="layer1"
     transform="translate(-223.34065,-68.662628)"><g
       id="Layer_x0020_1"
       transform="matrix(0.07540535,0,0,0.07540535,40.779371,24.605429)"
       style="clip-rule:evenodd;fill-rule:evenodd;image-rendering:optimizeQuality;shape-rendering:geometricPrecision;text-rendering:geometricPrecision">
  <metadata
   id="CorelCorpID_0Corel-Layer" />
  
  
  
  
  
  
  
  
  
  
  
  <g
   id="g29"
   transform="translate(2711.5657,462.55871)"><g
     id="_2408212217632"
     transform="translate(706.01067,121.72598)">
   <path
   class="fil0"
   d="M 359.31,2262.03 C 116.3,3564.09 232.08,4926.78 1053.72,6018.25 2397.85,7803.79 4513.21,7465.56 5307.59,5311.77 l 132.56,-413.86 c -55.86,356.9 -63.17,485.14 -164.9,826.22 C 4649.07,7823.39 2642.74,8114.11 1165.47,6742.77 -192.2,5482.45 -223.21,3912.72 359.31,2262.02 Z"
   id="path1"
   style="fill:#ffffff;fill-opacity:1" />
  </g><path
     class="fil1"
     d="m 1065.3207,2383.756 c -1440.38003,4623.64 4155.3,7380.51 5080.84,2635.88"
     id="path2" /><g
     id="_2408212217680"
     transform="translate(706.01067,121.72598)">
   <path
   class="fil0"
   d="M 5461.97,3231.46 C 5168.53,1975.01 4400.81,-279.37 2568.17,285.47 1566.23,594.29 555.74,1954.24 1145.95,2936.25 c 667.89,1111.27 2534.39,1848.47 3817.89,1253.15 352.76,-163.61 845.36,-538.83 1239.9,-751.22 478.82,-257.74 1482,-712.91 2049.03,-623.2 493.78,78.13 -89.16,598.59 -128.24,654.68 -256.48,368.02 -565.01,1196.97 53.43,1303.56 311.16,-832.22 948.84,-1262.14 1881.65,-1446.49 353.14,-69.8 1656.23,-132.28 1723.6,330.73 24.71,169.78 -322.54,350.2 -23.15,1544 58.31,232.52 130.62,471.02 200.75,705.92 1256.03,-410.31 3788.03,321.2 3001.96,-1692.22 -210.26,-538.56 -582.87,-999.62 -1126.37,-1262.61 -659.86,-319.28 -1830.8,-702.54 -1779.74,-1606.17 72.32,-1279.95 3138.16,-2026.05 4194.76,-474.56 l 131.84,226.23 -140.98,-220.25 c -929.44,-1250.06 -3420.97,-858.45 -3906.87,204.5 -407.62,891.68 1030.27,1336.54 1609.34,1587.82 774.56,336.11 1381.89,1077.09 1538.35,1884.72 350.37,1808.41 -1928.54,1509.67 -3037.28,1637.22 -660.68,76.01 -685.9,500.99 -901.68,-234.24 -201.79,-687.65 -501.26,-1490.82 -232.32,-2189.18 -419.48,-182.22 -999.2,-110.79 -1413.55,8.07 -759.21,217.78 -1126.95,542.74 -1369.26,1245.34 -121.44,352.14 -857.34,141.06 -1052.28,-324.16 -214.39,-511.63 18.34,-1020.59 321.79,-1448.97 -346.31,54.54 -643.99,169.97 -1004.52,339.77 -603.71,284.33 -1147.86,727.72 -1648.95,960.09 C 3660.22,5237.36 1571.53,4451.33 835.94,3099.81 140.77,1822.58 1505.46,114.17 2907.37,36.24 4648.13,-60.53 5223.29,1969.12 5461.97,3231.43 Z"
   id="path3"
   style="fill:#ffffff;fill-opacity:1" />
  </g><path
     class="fil1"
     d="m 6167.9807,3353.186 c -891.01,-4788.38 -4348.05,-3166.40002 -4659.77,-990.92 -187.09,1305.71 2656.92,3267.99 4631.76,1912.3 1238.05,-849.92 2183.97,-1174.05 2806.45,-1138.65 -892.35,896.93 -808.38,2031.7 84.14,1969.42 307.17,-1497.9 2646.4503,-1797.51 3252.2903,-1298.59 -407.89,591.4 63.27,1817.38 248.1,2495.56 558.02,-412.38 2214.45,-29.95 3065.8,-530.35 996.15,-585.51 15.61,-2481.54 -1000.16,-2838.88 -4546.99,-1599.64 1170.19,-4254.73 2492.68,-1713.29"
     id="path4" /><path
     class="fil0"
     d="M 5815.15,7451.31 C 6487.76,5096.88 6124.73,6266.6 6904.41,3942.21 h 0.04 c -411.24,2416.94 -178.43,1214.52 -698.22,3607.33 -27.13,108 -136.66,173.55 -244.65,146.42 -108,-27.13 -173.55,-136.66 -146.42,-244.65 z"
     id="path5"
     style="clip-rule:evenodd;fill:#ffffff;fill-opacity:1;fill-rule:evenodd;image-rendering:optimizeQuality;shape-rendering:geometricPrecision;text-rendering:geometricPrecision"
     transform="translate(706.01067,121.72598)" /><line
     class="fil1"
     x1="6716.7007"
     y1="7622.1562"
     x2="7610.4409"
     y2="4063.936"
     id="line5"
     style="fill:#ffffff" /><g
     id="_2408212220848"
     transform="translate(706.01067,121.72598)">
   <path
   class="fil0"
   d="m 7327.52,2615.04 c 45.84,-144.81 714.6,-2378.2 805.07,-2453.3 549.35,-456 1407.87,2714.24 1516.31,3072.68 L 9547.88,3016.11 C 9083.38,1999.68 8833.02,1510.09 8269.21,646.17 Z"
   id="path6"
   style="fill:#ffffff;fill-opacity:1" />
  </g><path
     class="fil1"
     d="m 8033.5307,2736.766 916.42,-2319.14002 C 9578.7907,1081.126 10178.271,2920.516 10354.901,3356.146"
     id="path7" /><g
     id="_2408212219696"
     transform="translate(706.01067,121.72598)">
   <path
   class="fil0"
   d="m 10133.64,4228.96 c 352.67,713.72 704.35,1299.42 1090.8,1988.98 183.72,327.81 254.17,492.75 350.49,767.96 1734.47,-936.32 5320.81,843.85 4210.08,-2944.86 l -140.13,-433.82 c 194.43,390.61 358.18,711.06 488.71,1130.59 905.46,2910.18 -2476.43,2097.52 -4006.42,2451.72 -378.2,87.55 -620.6,420.49 -798.79,250.62 -64.71,-61.68 -1077.89,-2845.79 -1194.75,-3211.2 z"
   id="path8"
   style="fill:#ffffff;fill-opacity:1" />
  </g><path
     class="fil1"
     d="m 10839.651,4350.686 c 625.56,1579.35 1016.84,2039.97 1333.86,3065.27 1212.18,-1167.95 6229.72,1024.12 4177.38,-3687.01"
     id="path9" /><g
     id="_2408212224304"
     transform="translate(706.01067,121.72598)">
   <path
   class="fil0"
   d="m 13728.51,2256.13 c -575.46,-130.71 -1454.22,-461.91 -946.32,-1199.13 460.64,-668.64 1715.31,-800.61 2444.29,-557.33 1221.1,407.52 1552.3,1399.25 1720.44,2559.08 C 16753.58,2386.04 16627.19,2000.71 16166,1460.09 15418.76,584.15 14159.37,322.87 13183.69,1008.3 c -823.88,578.79 -83.56,1011.87 544.82,1247.83 z"
   id="path10"
   style="fill:#ffffff;fill-opacity:1" />
  </g><path
     class="fil1"
     d="m 14434.521,2377.856 c -3238.8,-820.77 2403.75,-3909.28 3218.41,802.61"
     id="path11" /></g>
 </g><text
       xml:space="preserve"
       style="font-weight:bold;font-size:192px;line-height:0.9;font-family:Inter;-inkscape-font-specification:'Inter Bold';text-align:start;writing-mode:lr-tb;direction:ltr;text-anchor:start;clip-rule:evenodd;fill:#ffffff;fill-opacity:1;fill-rule:evenodd;stroke:none;stroke-width:1;stroke-opacity:1;image-rendering:optimizeQuality;shape-rendering:geometricPrecision;text-rendering:geometricPrecision"
       x="951.9032"
       y="802.73456"
       id="text27"><tspan
         id="tspan27"
         style="font-style:normal;font-variant:normal;font-weight:200;font-stretch:normal;line-height:0.9;font-family:Inter;-inkscape-font-specification:'Inter Ultra-Light';text-align:center;text-anchor:middle;fill:#ffffff;fill-opacity:1;stroke-width:1"
         x="951.9032"
         y="802.73456">OceanApocalypse</tspan><tspan
         style="font-style:normal;font-variant:normal;font-weight:200;font-stretch:normal;line-height:0.9;font-family:Inter;-inkscape-font-specification:'Inter Ultra-Light';text-align:center;text-anchor:middle;fill:#ffffff;fill-opacity:1;stroke-width:1"
         x="951.9032"
         y="975.53455"
         id="tspan28">Studios</tspan></text></g></svg>
