<?xml version="1.0" encoding="UTF-8"?>
<!DOCTYPE svg PUBLIC "-//W3C//DTD SVG 1.1//EN" "http://www.w3.org/Graphics/SVG/1.1/DTD/svg11.dtd">
<!-- Creator: CorelDRAW 2021 (64-Bit) -->
<svg xmlns="http://www.w3.org/2000/svg" xml:space="preserve" width="168.109mm" height="76.4029mm" version="1.1" style="shape-rendering:geometricPrecision; text-rendering:geometricPrecision; image-rendering:optimizeQuality; fill-rule:evenodd; clip-rule:evenodd"
viewBox="0 0 16946.91 7702.1"
 xmlns:xlink="http://www.w3.org/1999/xlink"
 xmlns:xodm="http://www.corel.com/coreldraw/odm/2003">
 <defs>
  <style type="text/css">
   <![CDATA[
    .fil1 {fill:none}
    .fil0 {fill:#2B2A29}
   ]]>
  </style>
 </defs>
 <g id="Layer_x0020_1">
  <metadata id="CorelCorpID_0Corel-Layer"/>
  <g id="_2408212217632">
   <path class="fil0" d="M359.31 2262.03c-243.01,1302.06 -127.23,2664.75 694.41,3756.22 1344.13,1785.54 3459.49,1447.31 4253.87,-706.48l132.56 -413.86c-55.86,356.9 -63.17,485.14 -164.9,826.22 -626.18,2099.26 -2632.51,2389.98 -4109.78,1018.64 -1357.67,-1260.32 -1388.68,-2830.05 -806.16,-4480.75z"/>
  </g>
  <path class="fil1" d="M359.31 2262.03c-1440.38,4623.64 4155.3,7380.51 5080.84,2635.88"/>
  <g id="_2408212217680">
   <path class="fil0" d="M5461.97 3231.46c-293.44,-1256.45 -1061.16,-3510.83 -2893.8,-2945.99 -1001.94,308.82 -2012.43,1668.77 -1422.22,2650.78 667.89,1111.27 2534.39,1848.47 3817.89,1253.15 352.76,-163.61 845.36,-538.83 1239.9,-751.22 478.82,-257.74 1482,-712.91 2049.03,-623.2 493.78,78.13 -89.16,598.59 -128.24,654.68 -256.48,368.02 -565.01,1196.97 53.43,1303.56 311.16,-832.22 948.84,-1262.14 1881.65,-1446.49 353.14,-69.8 1656.23,-132.28 1723.6,330.73 24.71,169.78 -322.54,350.2 -23.15,1544 58.31,232.52 130.62,471.02 200.75,705.92 1256.03,-410.31 3788.03,321.2 3001.96,-1692.22 -210.26,-538.56 -582.87,-999.62 -1126.37,-1262.61 -659.86,-319.28 -1830.8,-702.54 -1779.74,-1606.17 72.32,-1279.95 3138.16,-2026.05 4194.76,-474.56l131.84 226.23 -140.98 -220.25c-929.44,-1250.06 -3420.97,-858.45 -3906.87,204.5 -407.62,891.68 1030.27,1336.54 1609.34,1587.82 774.56,336.11 1381.89,1077.09 1538.35,1884.72 350.37,1808.41 -1928.54,1509.67 -3037.28,1637.22 -660.68,76.01 -685.9,500.99 -901.68,-234.24 -201.79,-687.65 -501.26,-1490.82 -232.32,-2189.18 -419.48,-182.22 -999.2,-110.79 -1413.55,8.07 -759.21,217.78 -1126.95,542.74 -1369.26,1245.34 -121.44,352.14 -857.34,141.06 -1052.28,-324.16 -214.39,-511.63 18.34,-1020.59 321.79,-1448.97 -346.31,54.54 -643.99,169.97 -1004.52,339.77 -603.71,284.33 -1147.86,727.72 -1648.95,960.09 -1484.83,688.58 -3573.52,-97.45 -4309.11,-1448.97 -695.17,-1277.23 669.52,-2985.64 2071.43,-3063.57 1740.76,-96.77 2315.92,1932.88 2554.6,3195.19z"/>
  </g>
  <path class="fil1" d="M5461.97 3231.46c-891.01,-4788.38 -4348.05,-3166.4 -4659.77,-990.92 -187.09,1305.71 2656.92,3267.99 4631.76,1912.3 1238.05,-849.92 2183.97,-1174.05 2806.45,-1138.65 -892.35,896.93 -808.38,2031.7 84.14,1969.42 307.17,-1497.9 2646.45,-1797.51 3252.29,-1298.59 -407.89,591.4 63.27,1817.38 248.1,2495.56 558.02,-412.38 2214.45,-29.95 3065.8,-530.35 996.15,-585.51 15.61,-2481.54 -1000.16,-2838.88 -4546.99,-1599.64 1170.19,-4254.73 2492.68,-1713.29"/>
  <g id="_2408212221232">
   <path class="fil0" d="M5815.15 7451.31c672.61,-2354.43 309.58,-1184.71 1089.26,-3509.1l0.04 0c-411.24,2416.94 -178.43,1214.52 -698.22,3607.33 -27.13,108 -136.66,173.55 -244.65,146.42 -108,-27.13 -173.55,-136.66 -146.42,-244.65z"/>
  </g>
  <line class="fil1" x1="6010.69" y1="7500.43" x2="6904.43" y2= "3942.21" />
  <g id="_2408212220848">
   <path class="fil0" d="M7327.52 2615.04c45.84,-144.81 714.6,-2378.2 805.07,-2453.3 549.35,-456 1407.87,2714.24 1516.31,3072.68l-101.02 -218.31c-464.5,-1016.43 -714.86,-1506.02 -1278.67,-2369.94l-941.69 1968.87z"/>
  </g>
  <path class="fil1" d="M7327.52 2615.04l916.42 -2319.14c628.84,663.5 1228.32,2502.89 1404.95,2938.52"/>
  <g id="_2408212219696">
   <path class="fil0" d="M10133.64 4228.96c352.67,713.72 704.35,1299.42 1090.8,1988.98 183.72,327.81 254.17,492.75 350.49,767.96 1734.47,-936.32 5320.81,843.85 4210.08,-2944.86l-140.13 -433.82c194.43,390.61 358.18,711.06 488.71,1130.59 905.46,2910.18 -2476.43,2097.52 -4006.42,2451.72 -378.2,87.55 -620.6,420.49 -798.79,250.62 -64.71,-61.68 -1077.89,-2845.79 -1194.75,-3211.2z"/>
  </g>
  <path class="fil1" d="M10133.64 4228.96c625.56,1579.35 1016.84,2039.97 1333.86,3065.27 1212.18,-1167.95 6229.72,1024.12 4177.38,-3687.01"/>
  <g id="_2408212224304">
   <path class="fil0" d="M13728.51 2256.13c-575.46,-130.71 -1454.22,-461.91 -946.32,-1199.13 460.64,-668.64 1715.31,-800.61 2444.29,-557.33 1221.1,407.52 1552.3,1399.25 1720.44,2559.08 -193.34,-672.71 -319.73,-1058.04 -780.92,-1598.66 -747.24,-875.94 -2006.63,-1137.22 -2982.31,-451.79 -823.88,578.79 -83.56,1011.87 544.82,1247.83z"/>
  </g>
  <path class="fil1" d="M13728.51 2256.13c-3238.8,-820.77 2403.75,-3909.28 3218.41,802.61"/>
 </g>
</svg>
